<?xml version="1.0" encoding="utf-8"?>
<!-- Generator: Adobe Illustrator 17.0.0, SVG Export Plug-In . SVG Version: 6.00 Build 0)  -->
<!DOCTYPE svg PUBLIC "-//W3C//DTD SVG 1.1//EN" "http://www.w3.org/Graphics/SVG/1.1/DTD/svg11.dtd">
<svg version="1.1" id="Layer_1" xmlns="http://www.w3.org/2000/svg" xmlns:xlink="http://www.w3.org/1999/xlink" x="0px" y="0px"
	 width="612px" height="792px" viewBox="0 0 612 792" enable-background="new 0 0 612 792" xml:space="preserve">
<g>
	<path fill="#2D1210" d="M114.252,338.806c1.47-1.907,0.833-4.196,1.03-6.297c0.561-5.984,0.887-11.99,1.305-17.983
		c0.817-8.794,1.635-17.592,2.452-26.388c0.993-8.087,1.986-16.176,2.978-24.259c1.751-8.457,2.355-17.127,4.593-25.499
		c0.656-2.453,1.448-4.87,2.18-7.31c2.015-3.115,5.139-3.964,8.554-4.182c4.734-0.302,9.447,0.004,14.162,0.449
		c10.2,0.964,20.383,0.457,30.555-0.486c0.312-0.029,0.595-0.378,0.892-0.578c1.819,1.283,3.677,0.108,5.477-0.018
		c10.477-0.733,20.943-1.623,31.419-2.461c8.994-0.593,17.982-1.185,26.967-1.777c2.058-0.004,4.117-0.007,6.158-0.014
		c0.798,0.048,1.614,0.099,2.43,0.15c2.149,0.31,4.29,0.689,6.447,0.914c3.205,0.335,5.947,1.084,5.408,5.725
		c4.033-1.026,6.243,2.488,9.589,3.069c3.845,0.927,4.72,3.373,4.163,7.098c-2.381,15.924-3.702,31.97-5.178,47.996
		c-0.152,1.648-0.182,3.307-0.269,4.962c-0.736,6.926-1.472,13.851-2.207,20.761c-0.519,4.764-1.039,9.544-1.559,14.325
		c-0.544,4.766-1.088,9.529-1.632,14.293c-0.499,3.981-0.999,7.962-1.498,11.943c-0.681,5.236-1.361,10.471-2.042,15.707
		c-1.068,6.416-2.136,12.831-3.204,19.247c-1.015,6.009-2.149,12.001-2.996,18.033c-0.432,3.081-1.707,5.252-4.653,6.351
		c-6.047,4.331-13.134,2.764-19.807,3.504c-1.613,0.016-3.233,0.032-4.853,0.047c0-0.001,0.084-0.001,0.084-0.001
		c-2.025,0-4.049,0-6.407,0c0.868,9.08-0.08,17.842-0.935,26.608c-0.099,1.014-0.034,1.811,0.841,2.714
		c4.195,4.329,4.117,7.489-0.024,12.223c-2.24,0.982-4.254,2.317-4.53,4.951c-0.438,4.181-1.232,8.278-2.214,12.355
		c-0.712,2.953,0.893,5.703,0.931,8.615c0.006,0.438,1.089,1.239,1.897,0.862c4.599-2.145,4.069,1.822,5.052,4.329
		c2.259-2.616,4.574-2.501,6.672,0.03c0.889,1.072,1.99,0.958,3.109,1.068c2.532,0.248,5.063,0.504,7.594,0.757
		c6.761,3.166,8.709,6.114,7.872,11.918c-1.599,4.691-5.241,6.979-9.734,8.212c-6.027,1.654-12.219,2.139-18.427,2.498
		c-4.601-0.28-9.205-0.506-13.799-0.856c-4.556-0.347-8.754-1.887-12.581-4.338c-4.193-2.685-5.552-6.92-3.179-11.216
		c2.358-4.267,3.956-8.26,2.578-13.404c-1.135-4.235,1.122-6.307,7.733-9.005c1.473,0.109,2.287-0.419,2.588-2.029
		c0.75-4.008,1.648-7.99,2.568-11.964c0.287-1.239-0.269-1.749-1.171-2.467c-6.649-5.288-5.698-11.354,2.182-14.408
		c1.015-0.393,2.277-0.381,2.499-1.954c1.177-8.358,1.999-16.707,0.41-24.853c-4.775,0-9.196,0-13.8,0
		c0.364,7.401,0.705,14.338,1.05,21.371c-1.925-0.086-3.009-1.242-4.341-0.593c-2.634-3.643-6.219-6.195-10.077-8.875
		c-3.907,3.068-7.791,6.154-11.722,9.179c-0.993,0.764-2.039,2.439-3.36,0.318c0-6.51,0-13.022,0-19.831
		c-6.123,0.584-11.197,1.067-16.442,1.567c-1.468,9.955-1.337,19.599,0.462,29.135c7.549,2.324,9.06,6.56,4.645,12.619
		c-0.65,0.893-1.17,1.653-0.764,2.769c2.033,5.588,3.702,11.323,6.528,16.804c2.349-1.646,4.56-2.517,7.038-1.094
		c3.122,5.388,3.805,11.499,5.088,17.421c0.329,1.516-0.494,2.967-1.212,4.321c-9.615,7.64-20.733,11.894-32.614,14.421
		c-5.695,0.853-11.339,2.066-17.168,0.722c-5.846-1.348-9.823-5.233-10.543-10.784c-0.609-4.696,2.258-9.22,7.529-11.847
		c2.194-1.094,4.49-1.852,6.925-2.244c2.03-0.327,3.696-0.448,4.79-3.198c1.387-3.485,3.707-0.258,5.549,0.571
		c1.613-0.689,0.649-2.362,1.373-3.341c0.863-1.542,2.617-0.358,3.735-1.146c0.266-1.534-0.219-3.499,1.055-4.369
		c2.886-1.971,1.535-4.079,0.703-6.29c-0.537-1.428-1.213-2.838-1.492-4.319c-0.441-2.343-1.858-3.137-4.02-3.112
		c-5.811-3.726-6.54-8.958-1.717-13.614c1.201-1.16,1.439-2.237,1.262-3.728c-0.562-4.718-1.242-9.435-1.506-14.173
		c-0.256-4.599-0.056-9.223-0.056-13.965c-3.739,0-7.426-0.192-11.085,0.045c-5.539,0.358-10.308-0.751-13.475-5.781
		c-3.602-11.703-4.183-23.791-4.64-35.895c-0.053-1.402-0.06-2.806-0.088-4.202c0.512-3.66,1.012-7.316,2.258-10.844
		c0.901-2.55,1.002-5.115,0.327-7.875C111.42,350.795,112.387,344.74,114.252,338.806z M261.465,341.79
		c0.826-6.884,1.63-13.77,2.481-20.651c3.497-28.295,4.964-56.805,8.988-85.045c0.598-4.196-0.56-5.203-5.544-4.891
		c-0.255,4.158-0.347,8.374-0.798,12.552c-3.046,28.216-6.175,56.422-9.244,84.635c-0.134,1.23-0.604,2.499,0.21,3.742
		c1.944,2.965,2.543,6.405,3.319,9.777c-0.534,3.365-1.069,6.731-1.603,10.096c0.414,0.051,0.828,0.103,1.243,0.154
		C260.82,348.7,261.74,345.337,261.465,341.79z M214.503,355.197c8.141,8.517,17.514,10.68,28.475,8.417
		c15.528-3.205,18.457-21.148,12.88-29.757c-0.861-1.329-1.037-2.505-0.875-3.942c2.622-23.228,5.253-46.456,7.826-69.69
		c1.131-10.214,2.163-20.439,2.382-30.727c0.049-2.294-0.276-3.93-3.155-4.2c-4.344-0.407-8.66-1.346-13.038-1.07
		c-15.897,1.003-31.792,2.056-47.68,3.194c-17.151,1.228-34.244,3.834-51.514,1.949c-0.857-0.094-1.819-0.206-2.608,0.611
		c0.538,2.618,0.311,5.254-0.172,7.945c-3.74,20.854-7.271,41.742-10.664,62.657c-0.748,4.614,1.126,6.71,4.424,9.152
		c1.252-3.378,3.047-6.144,4.74-8.969c1.2-2.003,6.424-3.717,8.486-2.585c3.008,1.65,2.104,4.175,1.417,6.755
		c-0.46,1.728-2.463,3.132-1.308,5.288c9.627-4.896,19.332-3.273,27.525,11.97c9.489-11.468,15.583-13.039,30.256-7.697
		c0.188-3.614-2.207-6.26-3.255-9.352c-1.686-4.972,0.194-7.659,5.484-7.734c4.592-0.065,7.199,2.804,9.12,6.441
		c5.164-1.857,8.011-0.698,9.626,3.764c0.624,1.726,0.732,3.491,0.548,5.313c-0.761,7.558-3.047,14.56-7.525,20.758
		c-0.768,1.063-1.903,2.234-1.15,3.427c2.811,4.456,0.674,8.002-2.151,11.729c6.715,4.295,13.686,5.7,21.057,3.383
		c3.03-0.953,4.971-3.523,5.176-7.029c0.065-1.11-0.63-2.725,1.371-3.025c2.319,5.729-1.624,11.935-8.429,13.009
		c-6.4,1.01-12.602,0.08-18.273-3.108c-2.142-1.204-3.688-1.2-5.431,0.476C217.069,353.509,215.834,354.223,214.503,355.197z
		 M169.944,416.262c-0.667-2.932,0.527-5.605-1.121-8.146c-2.489,0.204-4.795,0.325-7.084,0.592
		c-10.22,1.19-20.479,1.81-30.759,2.093c-4.396,0.121-5.419-0.836-6-5.181c-0.528-3.947-1.06-7.894-1.548-11.846
		c-0.633-5.121,0.434-6.556,5.514-6.979c25.863-2.151,51.73-4.257,77.596-6.365c13.063-1.065,26.129-2.081,39.189-3.172
		c1.878-0.157,4.294-0.127,4.73-2.47c0.704-3.792,1.425-7.658,0.877-11.776c-2.281,0.851-4.155,1.691-6.107,2.256
		c-11.323,3.278-21.581,1.47-30.565-6.465c-1.166-1.03-2.163-2.309-4.326-1.666c-6.518,1.937-7.848,1.211-10.474-4.828
		c-5.654,0.841-11.237,1.248-15.549-3.657c-5.513,7.746-12.275,5.863-19.276,2.9c-1.888,4.976-5.271,6.649-10.14,4.994
		c-1.868-0.635-2.763,0.539-3.832,1.741c-3.723,4.186-7.986,8.198-13.401,9.361c-6.088,1.307-9.27,3.715-9.16,10.267
		c0.046,2.715-2.398,4.282-5.223,3.871c-2.826-0.411-4.149-2.441-4.051-5.239c0.067-1.92,0.215-3.871,0.636-5.739
		c0.891-3.952-1.279-5.49-4.655-6.533c-1.73,4.159-2.432,8.293-2.579,12.565c-0.323,9.409,1.035,18.686,2.117,27.985
		c0.341,2.932,1.06,5.788,1.848,8.648c1.103,4.006,3.834,5.612,7.599,5.668c5.005,0.075,10.03,0.074,15.02-0.28
		C149.32,418.144,159.404,417.169,169.944,416.262z M159.548,343.281c2.559,2.521,4.895,5.029,7.894,6.693
		c4.863,2.697,10.488,2.557,13.294-0.395c1.736-1.827,1.995-3.474-0.344-5.069c-2.14-1.459-4.493-2.446-6.84-3.486
		c-5.535-2.453-8.313-7.048-9.51-12.733c-0.461-2.188,0.157-4.12,2.335-5.184c2.235-1.092,4.259-0.612,5.943,1.14
		c0.703,0.732,1.196,1.662,1.826,2.469c1.046,1.339,1.726,3.541,4.115,2.233c2.061-1.128,1.564-3.098,1.049-4.784
		c-1.55-5.077-4.422-9.299-9.011-12.066c-6.192-3.733-11.455-3.047-15.046,1.89c-3.257,4.479-2.196,9.518-1.446,14.441
		c0.247,1.622,1.683,3.121,0.094,5.784c-3.399-5.844-1.523-11.78-2.761-16.947c-1.531-6.388,2.619-11.115,2.859-16.736
		c-4.265-0.427-7.265,1.35-9.261,5.818c-3.281,7.347-3.05,14.694,0.826,21.841c0.62,1.144,1.799,2.114,1.465,3.614
		c-2.273,0.781-2.638-1.004-3.235-2.097c-2.185-4.004-3.225-8.31-3.44-12.895c-0.269-5.722-3.525-9.135-8.235-8.552
		c-1.751,16.209,9.194,24.783,20.379,33.253c-2.013,1.423-3.206,0.049-4.403-0.692c-1.694-1.049-3.249-1.659-4.734,0.198
		c-1.38,1.725-1.515,4.017-0.136,5.305c4.122,3.847,8.501,7.489,14.326,8.595c2.062,0.392,3.494-0.532,4.452-2.252
		c0.986-1.769,0.827-3.317-0.762-4.823C160.164,346.822,158.259,345.954,159.548,343.281z M208.937,344.627
		c-0.503,2.658-2.611,3.435-3.986,4.79c-1.457,1.435-2.795,3.106-1.637,5.034c1.118,1.863,3.281,1.891,5.201,1.102
		c5.178-2.127,9.808-5.084,13.301-9.547c1.428-1.825,2.886-3.853,1.737-6.321c-1.352-2.905-3.337,0.822-4.913-0.238
		c-0.472-1.181,0.407-1.684,1.048-2.258c6.965-6.232,10.129-14.31,11.456-23.321c0.35-2.379,0.074-4.607-0.942-6.748
		c-0.664-1.399-1.853-2.204-3.383-2.089c-1.713,0.129-1.813,1.694-1.928,2.906c-0.156,1.645-0.147,3.336,0.044,4.978
		c0.844,7.223-1.413,13.662-4.869,19.808c-0.346,0.615-0.792,1.384-1.777,0.915c-0.104-2.029-0.131-2.044,1.006-4.084
		c4.487-8.052,4.666-16.355,1.562-24.89c-0.956-2.628-2.657-4.355-5.41-4.93c-1.707-0.357-3.473-0.101-4.747,0.989
		c-1.527,1.307-0.351,3.029,0.292,4.243c1.952,3.685,3.25,7.438,3.102,11.681c-0.042,1.197,0.722,2.401,0.929,3.633
		c0.527,3.132,2.319,6.407-0.668,9.533c-0.985-1.469-0.526-2.776-0.539-4c-0.068-6.484-2.519-9.803-8.777-11.715
		c-9.777-2.986-22.184,4.987-23.513,15.115c-0.193,1.473-0.046,2.865,1.357,3.733c1.428,0.884,2.963,0.8,4.426,0.126
		c1.68-0.774,2.736-2.292,3.97-3.591c1.937-2.04,3.663-4.326,6.356-5.491c2.143-0.928,4.295-1.088,6.177,0.464
		c1.803,1.487,2.496,3.533,2.165,5.868c-0.837,5.909-5.811,11.135-11.739,12.254c-1.65,0.311-3.263,0.632-4.724,1.511
		c-1.272,0.765-2.346,1.78-2.273,3.304c0.082,1.699,1.592,2.262,2.968,2.582c5.101,1.183,9.917,0.81,14.163-2.716
		C205.576,346.258,206.413,344.588,208.937,344.627z M150.642,354.912c-0.873-0.682-1.616-1.168-2.247-1.77
		c-2.575-2.457-4.889-2.733-7.319,0.342c-1.263,1.598-3.109,2.721-5.096,3.359c-8.225,2.641-13.945-1.092-14-9.008
		c-0.077-11.269,1.065-22.571,2.636-33.765c3.973-28.304,8.905-56.454,13.858-84.597c-5.442-0.446-7.469,0.673-8.778,5.675
		c-1.609,6.147-2.903,12.362-3.846,18.675c-4.062,27.197-6.553,54.55-8.527,81.96c-0.111,1.544-0.457,2.982-1,4.461
		c-1.892,5.151-2.436,10.464-1.31,15.898c1.025,4.949,3.769,8.188,8.711,9.771C132.855,368.836,143.937,364.523,150.642,354.912z
		 M172.693,436.087c3.76-3.017,6.77-5.2,9.497-7.694c2.283-2.087,4.113-2.392,6.569-0.196c2.589,2.314,5.559,4.201,9.022,6.761
		c-0.962-15.229-1.858-29.412-2.78-43.997c-8.058,0.708-15.685,1.378-23.779,2.089C171.708,407.261,172.183,421.172,172.693,436.087
		z M256.68,409.312c1.246-0.599,1.322-1.856,1.509-2.95c1.909-11.136,3.984-22.248,5.604-33.427
		c6.502-44.883,9.667-90.143,15.147-135.142c0.312-2.558-0.564-3.618-2.989-3.645c-1.097,1.016-0.944,2.37-1.115,3.621
		c-3.787,27.752-5.411,55.729-8.719,83.531c-3.034,25.501-5.626,51.079-10.969,76.222
		C254.177,402.084,254.258,405.617,256.68,409.312z M244.973,379.71c-0.998,0-1.755-0.055-2.502,0.008
		c-37.9,3.17-75.866,5.537-113.724,9.232c-3.79,0.37-4.231,2.161-2.704,5.451c39.57-3.266,79.221-6.538,118.785-9.803
		C245.366,382.902,245.203,381.521,244.973,379.71z M128.682,355.067c1.207-6.433,1.13-12.451,1.443-18.401
		c0.373-7.1,2.173-14.203-0.276-21.383c-0.912-2.673-1.158-6.411,1.3-8.363c2.608-2.07,2.844-4.527,3.244-7.256
		c0.595-4.066,1.239-8.126,1.924-12.179c2.933-17.351,5.913-34.694,8.803-52.052c0.317-1.903,1.136-4.462-2.05-4.806
		c-2.933-0.316-3.038,2.085-3.384,4.141c-1.406,8.361-2.864,16.714-4.254,25.078c-4.783,28.765-10.169,57.451-11.369,86.689
		C123.913,350.178,125.319,352.809,128.682,355.067z M198.729,413.484c16.092,0,31.727,0.064,47.361-0.054
		c3.122-0.024,6.846-0.065,7.645-4.154c0.525-2.684-2.531-4.155-7.881-4.055c-14.391,0.269-28.782,0.561-43.172,0.881
		c-1.373,0.031-2.835-0.264-4.17,0.663C198.173,409.163,198.293,411.557,198.729,413.484z M215.54,457.78
		c-1.889,2.132-4.453,0.808-4.881,3.813c-0.993,6.975-2.566,13.875-4.087,20.765c-0.541,2.448,0.351,3.793,2.521,4.306
		c2.168,0.512,4.161,0.149,4.825-2.471c0.657-2.593,1.543-5.169,1.831-7.806c0.676-6.183,3.551-12.118,2.078-18.786
		c3.271,0.032,6.13-0.905,7.265-4.246c0.704-2.075,0.931-4.299-1.582-5.964c-1.372,3.351-3.663,5.343-7.379,4.625
		c-3.402-0.658-4.856-3.041-4.809-6.477c-3.042,0.694-5.72,2.093-5.78,5.086C205.42,456.658,210.905,456.612,215.54,457.78z
		 M147.208,467.475c1.704,6.188,3.862,11.962,7.158,17.272c1.183,1.906,2.534,3.581,4.948,3.869
		c2.807,0.335,5.275-2.011,4.206-4.347c-2.978-6.511-4.921-13.42-7.622-19.801c-1.368-0.523-2.819,0.955-3.815-1.08
		c3.206-1.869,7.828-2.765,7.165-7.952c-0.262-2.05-1.55-3.44-4.053-3.706c-0.499,3.408-1.394,6.711-5.486,7.31
		c-3.695,0.542-6.061-1.804-8.143-4.457c-2.286,1.976-2.994,4.263-2.212,6.771c1.759,5.636,6.861,3.007,10.514,3.561
		C149.843,467.095,148.098,466.523,147.208,467.475z M184.903,346.436c1.724-3.942,4.893-5.413,8.607-5.98
		c5.012-0.766,7.871-3.959,9.611-8.417c0.835-2.14,1.276-4.481-0.983-5.889c-1.979-1.234-4.001-0.278-5.584,1.239
		c-1.945,1.864-3.763,3.86-5.695,5.738c-3.935,3.825-7.599,3.643-11.091-0.496c-0.325-0.385-0.709-1.141-0.964-1.1
		c-4.259,0.692-5.753-2.529-7.678-5.232c-0.883-1.24-2.192-1.935-3.686-1.115c-1.503,0.825-1.47,2.277-1.034,3.723
		c1.479,4.913,4.207,8.735,9.206,10.625C179.246,340.907,182.689,342.59,184.903,346.436z M197.33,398.193
		c1.189,2.418-1.945,6.673,3.454,6.159c11.526-1.097,23.079-0.62,34.618-0.903c3.291-0.081,6.579-0.287,9.78-0.432
		c0-3.005,0-5.617,0-8.436C229.278,395.781,213.673,396.959,197.33,398.193z M219.081,495.362c-2.263-1.245-2.669-2.825-1.532-5.316
		c1.3-2.847,1.064-2.955-1.16-5.701c-2.185,3.756-7.206,6.43-9.704,4.583c-2.849-2.106-2.701-5.454-1.746-8.715
		c0.339-1.159,0.906-2.442,0.007-3.643c-5.092,0.143-7.58,2.977-6.764,7.82c0.546,3.241,1.381,6.459-0.914,9.438
		c10.036,4.592,20.498,5.285,30.914,6.296c1.428,0.139,2.206-0.478,2.865-1.318c1.548-1.973,2.937-4.071,4.435-6.182
		c-3.343-1.754-3.584,1.307-4.904,2.485c-1.518,1.355-2.959,3.327-5.245,2.317c-2.346-1.037-1.514-3.178-0.993-5.051
		c0.051-0.182-0.153-0.435-0.434-1.153C222.372,492.825,221.145,494.6,219.081,495.362z M151.537,420.398
		c-2.933,0.138-5.21,0.242-7.487,0.353c-1.156,0.056-1.912,0.484-2.009,1.806c-0.779,10.551,0.08,20.993,2.27,31.315
		c0.547,2.578,2.851,3.2,5.165,2.887c2.443-0.33,3.563-2.087,3.17-4.431C150.906,441.937,150.091,431.514,151.537,420.398z
		 M131.183,494.2c1.937,2.438,3.961,4.776,5.737,7.288c1.343,1.9,2.704,1.731,4.597,0.932c8.966-3.785,17.982-7.45,26.983-11.15
		c4.665-1.918,5.002-2.796,2.965-7.464c-0.556-1.274-1.253-2.43-2.79-2.018c-1.171,0.313-2.516,0.838-2.606,2.412
		c-0.208,3.651-2.053,6.199-5.636,6.552c-3.818,0.377-6.473-1.881-8.175-5.263c-0.782-1.554-1.184-3.409-2.975-4.236
		c-1.526,0.657-1.607,1.924-1.585,3.247c0.042,2.516-0.345,5.018,0.592,7.526c0.507,1.358,0.73,3.301-1.026,4.074
		c-1.626,0.716-2.387-0.955-3.378-1.909c-0.785-0.755-0.808-2.238-2.219-2.391c-0.49,0.637-0.15,1.213,0.009,1.807
		c0.198,0.741,0.328,1.501,0.53,2.242c0.377,1.385,0.137,2.722-1.16,3.305c-1.248,0.561-2.164-0.509-2.813-1.471
		C136.247,494.743,134.124,492.332,131.183,494.2z M252.257,403.724c2.067-16.852,6.849-33.023,7.211-50.045
		c-5.649,4.755-5.936,10.804-6.232,16.859c-0.207,4.24-0.458,8.474-5.638,8.777c0,8.177,0,15.846,0,23.431
		C249.271,403.097,250.523,403.36,252.257,403.724z M245.157,386.673c-16.256,1.348-32.048,2.658-48.077,3.987
		c0.177,1.97,0.321,3.576,0.486,5.418c16.12-1.225,31.885-2.422,47.591-3.615C245.157,390.379,245.157,388.75,245.157,386.673z
		 M168.896,400.343c-13.966,1.065-27.943,2.132-41.933,3.199c0.584,5.511,0.583,5.491,5.693,5.134
		c2.557-0.179,5.118-0.308,7.68-0.395c9.717-0.33,19.342-1.594,29.01-2.503C169.497,403.846,169.602,402.223,168.896,400.343z
		 M222.21,416.227c-2.416-0.05-4.549-0.373-6.924,0.472c1.09,9.913,0.333,19.718-1.428,29.473c-0.39,2.161,0.712,3.492,2.88,3.698
		c2.146,0.204,3.875-0.476,4.168-2.932C222.107,436.893,223.82,426.866,222.21,416.227z M168.676,392.982
		c-14.21,1.185-28.431,2.37-42.786,3.567c0.359,2.009,0.599,3.351,0.875,4.898c14.297-1.093,28.313-2.166,42.331-3.238
		C169.098,396.189,169.42,394.656,168.676,392.982z M139.399,508.414c-3.093-5.445-7.276-9.27-12.338-12.209
		c-0.525-0.304-1.044-0.584-1.785-0.445c-5.139,0.969-8.872,7.422-7.1,12.291c0.484,1.33,1.174,2.149,2.709,2.253
		C127.067,510.726,133.122,510.136,139.399,508.414z M143.606,337.597c-3.677-3.418-7.024-6.892-10.552-10.722
		c-0.601,9.322-1.202,18.644-1.816,28.171c4.97,0.262,7.762-2.289,10.338-5.222c0.563-0.641,0.553-1.324,0.029-2.083
		C138.897,343.81,140.176,340.53,143.606,337.597z M230.773,504.523c5.05,0.241,9.463-0.043,13.774-1.302
		c1.809-0.528,4.128-0.665,4.587-2.909c0.453-2.215-1.178-3.845-2.655-5.274c-2.481-2.4-7.155-3.426-8.626-1.773
		C234.978,496.498,232.292,499.905,230.773,504.523z M140.535,505.155c0.357,1.86,0.888,2.905,2.624,2.326
		c9.979-3.324,20.119-6.268,28.964-12.272c1.24-0.842,2.354-1.698,0.935-3.404C162.282,496.229,151.512,500.65,140.535,505.155z
		 M229.093,502.318c-11.139-0.949-22.248-1.694-32.391-6.44c-2.455,2.917-2.282,4.699,1.348,5.748
		c9.603,2.774,19.47,2.735,29.318,2.973C228.362,504.622,228.666,503.966,229.093,502.318z M122.452,368.138
		c-0.401,3.117-0.824,5.752-1.048,8.404c-0.13,1.543,0.56,2.771,2.271,3.014c1.799,0.255,2.621-0.917,2.838-2.412
		c0.375-2.588,1.299-5.172,0.566-7.909C125.589,368.882,124.25,368.565,122.452,368.138z M211.808,510.411
		c1.942,0.152,3.564,0.543,5.421,0.003c0.098-1.231,0.461-2.445-0.38-3.883c-1.89-0.221-3.878-0.562-6.308,0.056
		C211.486,507.699,211.493,508.97,211.808,510.411z M158.153,504.546c-1.861,0.738-3.455,1.369-5.04,1.998
		c0.267,1.653,0.538,2.987,1.796,4.283c1.593-0.606,3.262-1.241,5.036-1.915C159.286,507.307,158.811,506.148,158.153,504.546z
		 M209.163,510.448c-0.018-1.823,0.474-3.028-0.149-4.396c-1.881-0.543-3.844-0.71-5.96-0.639
		C202.295,510.448,206.367,509.111,209.163,510.448z M145.193,513.084c0.009-1.456-0.097-2.677-1.279-3.819
		c-1.249,0.993-3.173,0.45-4.307,1.962c0.265,1.236,0.355,2.508,1.248,3.589C141.996,513.649,143.717,514.086,145.193,513.084z
		 M224.748,510.745c0.692-1.331,0.426-2.559-0.231-3.786c-1.647-0.167-3.148-0.366-4.676,0.176c-0.389,1.229-0.682,2.414,0.161,3.61
		C221.56,510.745,223.085,510.745,224.748,510.745z M166.38,505.535c-0.678-1.291-1.231-2.342-1.813-3.451
		c-1.587,0.542-3.092,0.776-4.16,2.027c0.521,1.317,0.618,2.763,1.985,3.775C163.674,507.13,164.944,506.381,166.38,505.535z
		 M227.304,510.813c2.241-0.329,4.073-0.597,6.014-0.882c-0.481-5.01-3.813-2.4-6.014-2.864
		C227.304,508.333,227.304,509.306,227.304,510.813z M152.12,511.313c-0.26-1.442-0.378-2.915-1.844-3.832
		c-1.2,0.417-2.504,0.426-3.478,1.453c0.155,1.318,0.184,2.678,1.302,3.665C149.526,512.371,150.894,512.221,152.12,511.313z
		 M228.867,488.415c-1.21,2.231-3.482,3.897-2.569,6.928C230.518,493.28,231.375,491.145,228.867,488.415z M168.683,504.037
		c0.8-0.754,2.032-1.116,2.431-2.262c-1.02-3.138-2.512-2.364-4.17-0.747C167.052,502.179,167.357,503.227,168.683,504.037z
		 M234.623,507.305c0.59,2.229,1.974,2.367,3.768,1.957c1.632-0.373,2.101-1.158,1.284-2.864
		C238.01,506.562,236.27,506.344,234.623,507.305z M138.371,514.283c-1.055-0.837-0.017-2.938-2.33-2.768
		c-0.97,0.071-2.083-0.091-2.82,0.976c-0.107,0.988,0.216,1.907,0.743,2.802C135.376,515.382,136.718,515.219,138.371,514.283z
		 M195.46,503.382c1.034,2.069,2.518,3.572,5.065,4.051C201.095,503.021,197.501,504.181,195.46,503.382z M222.757,485.869
		c-2.144,2.037-3.109,4.194-3.39,7.076C221.815,491.107,223.426,489.261,222.757,485.869z M173.321,500.425
		c1.305-1.258,2.261-2.275,0.933-4.099c-0.991,0.631-1.97,1.256-3.177,2.024C171.942,499.15,172.562,499.723,173.321,500.425z
		 M127.725,512.754c0.02,2.372,1.353,2.783,3.386,2.495C131.398,512.28,130.047,511.896,127.725,512.754z M139.865,496.405
		c-0.299-3.052-1.332-4.791-2.992-6.156C137.061,492.441,137.899,494.259,139.865,496.405z"/>
	<path fill="#EEBB3A" d="M231.199,416.129c0,0-0.084,0-0.084,0.001C231.116,416.131,231.199,416.129,231.199,416.129z"/>
	<path fill="#EEBB3A" d="M255.407,222.155c-0.816-0.051-1.632-0.102-2.43-0.15C253.799,222.057,254.603,222.106,255.407,222.155z"/>
	<path fill="#EF5F5A" d="M214.503,355.197c1.331-0.974,2.566-1.688,3.565-2.649c1.743-1.677,3.289-1.68,5.431-0.476
		c5.67,3.188,11.872,4.118,18.273,3.108c6.806-1.074,10.748-7.28,8.429-13.009c-2.001,0.3-1.307,1.915-1.371,3.025
		c-0.205,3.506-2.146,6.076-5.176,7.029c-7.37,2.317-14.341,0.912-21.057-3.383c2.825-3.727,4.962-7.273,2.151-11.729
		c-0.753-1.193,0.382-2.364,1.15-3.427c4.478-6.198,6.764-13.2,7.525-20.758c0.184-1.823,0.076-3.588-0.548-5.313
		c-1.615-4.463-4.462-5.621-9.626-3.764c-1.921-3.636-4.529-6.506-9.12-6.441c-5.29,0.075-7.17,2.762-5.484,7.734
		c1.048,3.093,3.443,5.738,3.255,9.352c-14.673-5.341-20.768-3.771-30.256,7.697c-8.192-15.243-17.898-16.866-27.525-11.97
		c-1.154-2.156,0.849-3.56,1.308-5.288c0.686-2.579,1.591-5.105-1.417-6.755c-2.063-1.131-7.286,0.583-8.486,2.585
		c-1.693,2.825-3.488,5.591-4.74,8.969c-3.298-2.442-5.172-4.538-4.424-9.152c3.392-20.914,6.924-41.803,10.664-62.657
		c0.483-2.691,0.71-5.327,0.172-7.945c0.789-0.817,1.752-0.704,2.608-0.611c17.27,1.885,34.364-0.721,51.514-1.949
		c15.888-1.137,31.782-2.19,47.68-3.194c4.378-0.276,8.694,0.663,13.038,1.07c2.879,0.27,3.204,1.906,3.155,4.2
		c-0.219,10.288-1.251,20.513-2.382,30.727c-2.573,23.234-5.204,46.461-7.826,69.69c-0.162,1.437,0.014,2.613,0.875,3.942
		c5.577,8.61,2.647,26.552-12.88,29.757C232.017,365.877,222.643,363.714,214.503,355.197z M192.441,279.641
		c6.925-0.79,13.233,0.233,18.218,6.43c-2.362-4.145-1.327-7.97-0.614-11.881c1.142-6.267,1.688-12.541-0.042-18.881
		c-1.099-4.029-4.474-7.828-8.154-7.458c-2.975,0.299-5.786,0.951-8.373-1.746c-0.54,2.475,1.471,3.187,1.621,4.434
		c-0.374,3.81-3.479,1.097-4.959,2.185c0.521,1.721,2.92,2.025,2.14,4.57c-2.235,7.288-1.579,14.716-0.143,22.094
		c-3.266,1.689-4.694,4.964-3.543,8.125c0.915,2.51,2.443,3.502,5.146,3.063c-2.723-2.568-5.013-5.214-2.177-8.9
		C192.032,281.066,192.556,280.496,192.441,279.641z M178.051,287.741c-1.094-2.755-5.898-2.932-3.81-6.304
		c1.988-3.21,5.07-0.42,7.615-0.425c0.096-0.415,0.245-0.683,0.187-0.892c-0.099-0.351-0.271-0.9-0.513-0.959
		c-4.215-1.043-3.15-4.226-2.959-7.095c0.306-4.608,0.74-9.218,0.777-13.83c0.033-4.203-1.354-8.144-5.52-9.785
		c-3.321-1.308-7.316-0.366-10.253-3.132c-1.337,2.548,2.128,3.67,0.494,5.841c-1.418,1.883-3.714-1.009-5.019,1.198
		c1.093,1.514,3.844,1.76,2.844,4.715c-1.784,5.273-2.037,10.832-2.024,16.361c0.006,2.443-0.411,4.17-2.744,5.711
		c-3.226,2.131-3.78,7.773-1.638,10.797c1.989,2.809,7.682,4.356,10.674,2.547c-2.494-0.882-4.772-1.561-6.943-2.488
		c-2.529-1.08-3.008-3.235-2.667-5.766c0.347-2.581,1.508-4.242,4.255-4.677c3.973-0.629,8.936,1.625,11.302,5.229
		C173.34,286.665,174.884,288.053,178.051,287.741z M199.935,288.921c1.73,4.284,0.653,6.725-3.353,10.467
		c-3.405,3.18-7.415,2.236-11.3,1.842c-0.046,1.938,0.949,2,1.779,2.243c5.208,1.525,10.505-0.867,14.274-6.646
		c1.261-1.933,2.031-4.226,5.336-4.457C204.369,290.362,202.669,288.799,199.935,288.921z"/>
	<path fill="#EF5F5A" d="M169.944,416.262c-10.54,0.907-20.623,1.883-30.725,2.599c-4.989,0.354-10.014,0.354-15.02,0.28
		c-3.765-0.056-6.496-1.663-7.599-5.668c-0.787-2.86-1.507-5.716-1.848-8.648c-1.082-9.298-2.441-18.576-2.117-27.985
		c0.147-4.272,0.849-8.405,2.579-12.565c3.376,1.043,5.546,2.581,4.655,6.533c-0.421,1.868-0.568,3.819-0.636,5.739
		c-0.098,2.798,1.225,4.828,4.051,5.239c2.825,0.411,5.268-1.157,5.223-3.871c-0.11-6.553,3.072-8.96,9.16-10.267
		c5.415-1.162,9.678-5.175,13.401-9.361c1.069-1.202,1.964-2.376,3.832-1.741c4.87,1.655,8.252-0.017,10.14-4.994
		c7.001,2.963,13.763,4.847,19.276-2.9c4.312,4.906,9.895,4.499,15.549,3.657c2.627,6.039,3.957,6.765,10.474,4.828
		c2.163-0.643,3.159,0.636,4.326,1.666c8.984,7.935,19.242,9.742,30.565,6.465c1.953-0.565,3.826-1.405,6.107-2.256
		c0.549,4.118-0.172,7.983-0.877,11.776c-0.435,2.344-2.851,2.314-4.73,2.47c-13.06,1.091-26.127,2.108-39.189,3.172
		c-25.866,2.108-51.733,4.214-77.596,6.365c-5.08,0.423-6.147,1.858-5.514,6.979c0.488,3.952,1.021,7.899,1.548,11.846
		c0.581,4.345,1.604,5.302,6,5.181c10.279-0.284,20.538-0.903,30.759-2.093c2.289-0.267,4.595-0.388,7.084-0.592
		C170.471,410.657,169.276,413.33,169.944,416.262z"/>
	<path fill="#EBE3DA" d="M159.548,343.281c-1.289,2.674,0.616,3.541,1.692,4.561c1.589,1.507,1.748,3.054,0.762,4.823
		c-0.958,1.719-2.39,2.643-4.452,2.252c-5.824-1.106-10.203-4.748-14.326-8.595c-1.379-1.287-1.244-3.58,0.136-5.305
		c1.485-1.857,3.041-1.247,4.734-0.198c1.196,0.741,2.39,2.114,4.403,0.692c-11.185-8.47-22.13-17.044-20.379-33.253
		c4.71-0.583,7.966,2.83,8.235,8.552c0.215,4.585,1.255,8.892,3.44,12.895c0.597,1.093,0.962,2.878,3.235,2.097
		c0.334-1.5-0.845-2.471-1.465-3.614c-3.876-7.147-4.108-14.494-0.826-21.841c1.996-4.469,4.996-6.245,9.261-5.818
		c-0.24,5.621-4.389,10.347-2.859,16.736c1.238,5.167-0.638,11.103,2.761,16.947c1.589-2.662,0.154-4.162-0.094-5.784
		c-0.75-4.922-1.811-9.962,1.446-14.441c3.591-4.937,8.854-5.623,15.046-1.89c4.589,2.766,7.461,6.989,9.011,12.066
		c0.515,1.686,1.012,3.656-1.049,4.784c-2.39,1.308-3.069-0.894-4.115-2.233c-0.63-0.807-1.123-1.737-1.826-2.469
		c-1.684-1.752-3.708-2.232-5.943-1.14c-2.177,1.064-2.796,2.996-2.335,5.184c1.197,5.685,3.975,10.28,9.51,12.733
		c2.347,1.04,4.7,2.027,6.84,3.486c2.34,1.595,2.081,3.243,0.344,5.069c-2.807,2.952-8.432,3.092-13.294,0.395
		C164.443,348.31,162.107,345.802,159.548,343.281z"/>
	<path fill="#EBE3DA" d="M208.937,344.627c-2.525-0.039-3.361,1.631-4.565,2.63c-4.246,3.525-9.062,3.898-14.163,2.716
		c-1.377-0.319-2.886-0.882-2.968-2.582c-0.073-1.524,1.001-2.539,2.273-3.304c1.461-0.879,3.074-1.2,4.724-1.511
		c5.928-1.119,10.903-6.345,11.739-12.254c0.331-2.335-0.362-4.381-2.165-5.868c-1.882-1.552-4.034-1.392-6.177-0.464
		c-2.693,1.166-4.419,3.452-6.356,5.491c-1.234,1.299-2.291,2.817-3.97,3.591c-1.463,0.674-2.998,0.758-4.426-0.126
		c-1.403-0.868-1.55-2.26-1.357-3.733c1.33-10.128,13.736-18.102,23.513-15.115c6.258,1.911,8.709,5.23,8.777,11.715
		c0.013,1.223-0.445,2.531,0.539,4c2.987-3.126,1.195-6.401,0.668-9.533c-0.207-1.232-0.971-2.435-0.929-3.633
		c0.148-4.242-1.151-7.996-3.102-11.681c-0.643-1.214-1.819-2.936-0.292-4.243c1.274-1.09,3.04-1.346,4.747-0.989
		c2.753,0.575,4.454,2.302,5.41,4.93c3.104,8.535,2.925,16.838-1.562,24.89c-1.137,2.04-1.109,2.056-1.006,4.084
		c0.984,0.468,1.431-0.3,1.777-0.915c3.456-6.146,5.713-12.585,4.869-19.808c-0.192-1.642-0.201-3.333-0.044-4.978
		c0.115-1.212,0.215-2.777,1.928-2.906c1.53-0.115,2.719,0.69,3.383,2.089c1.016,2.141,1.293,4.369,0.942,6.748
		c-1.327,9.011-4.491,17.089-11.456,23.321c-0.642,0.574-1.521,1.077-1.048,2.258c1.576,1.06,3.561-2.666,4.913,0.238
		c1.149,2.468-0.309,4.496-1.737,6.321c-3.493,4.463-8.124,7.42-13.301,9.547c-1.92,0.789-4.082,0.76-5.201-1.102
		c-1.157-1.928,0.181-3.599,1.637-5.034C206.326,348.061,208.435,347.285,208.937,344.627z"/>
	<path fill="#EF5F5A" d="M150.642,354.912c-6.705,9.611-17.787,13.924-26.917,11c-4.943-1.583-7.686-4.823-8.711-9.771
		c-1.126-5.434-0.581-10.747,1.31-15.898c0.543-1.479,0.889-2.917,1-4.461c1.973-27.41,4.465-54.762,8.527-81.96
		c0.943-6.313,2.237-12.528,3.846-18.675c1.309-5.003,3.336-6.121,8.778-5.675c-4.953,28.143-9.885,56.293-13.858,84.597
		c-1.571,11.194-2.714,22.497-2.636,33.765c0.054,7.916,5.775,11.649,14,9.008c1.987-0.638,3.833-1.76,5.096-3.359
		c2.43-3.075,4.744-2.8,7.319-0.342C149.026,353.745,149.768,354.231,150.642,354.912z"/>
	<path fill="#80A0CD" d="M172.693,436.087c-0.51-14.916-0.985-28.826-1.47-43.038c8.094-0.711,15.721-1.381,23.779-2.089
		c0.921,14.586,1.817,28.768,2.78,43.997c-3.462-2.56-6.433-4.446-9.022-6.761c-2.456-2.196-4.287-1.891-6.569,0.196
		C179.463,430.887,176.452,433.07,172.693,436.087z"/>
	<path fill="#EF5F5A" d="M256.678,409.311c-2.419-3.694-2.5-7.227-1.531-11.789c5.344-25.142,7.935-50.721,10.969-76.222
		c3.308-27.802,4.933-55.779,8.719-83.531c0.171-1.251,0.018-2.605,1.115-3.621c2.425,0.027,3.3,1.088,2.989,3.645
		c-5.481,44.999-8.645,90.259-15.147,135.142c-1.619,11.178-3.695,22.291-5.604,33.427
		C258.001,407.456,257.926,408.714,256.678,409.311z"/>
	<path fill="#EBE3DA" d="M244.973,379.71c0.23,1.811,0.393,3.192-0.144,4.888c-39.564,3.265-79.215,6.537-118.785,9.803
		c-1.527-3.29-1.087-5.081,2.704-5.451c37.858-3.696,75.824-6.062,113.724-9.232C243.218,379.656,243.975,379.71,244.973,379.71z"/>
	<path fill="#EF5F5A" d="M128.682,355.067c-3.363-2.258-4.77-4.888-4.62-8.533c1.2-29.238,6.586-57.923,11.369-86.689
		c1.391-8.364,2.848-16.717,4.254-25.078c0.346-2.056,0.45-4.457,3.384-4.141c3.186,0.344,2.367,2.902,2.05,4.806
		c-2.89,17.358-5.87,34.701-8.803,52.052c-0.685,4.052-1.329,8.112-1.924,12.179c-0.399,2.729-0.635,5.186-3.244,7.256
		c-2.458,1.951-2.212,5.69-1.3,8.363c2.449,7.18,0.649,14.283,0.276,21.383C129.813,342.616,129.89,348.633,128.682,355.067z"/>
	<path fill="#EBE3DA" d="M260.876,341.907c-0.776-3.372-1.375-6.812-3.319-9.777c-0.815-1.242-0.344-2.512-0.21-3.742
		c3.069-28.213,6.198-56.42,9.244-84.635c0.451-4.178,0.543-8.395,0.798-12.552c4.984-0.312,6.141,0.695,5.544,4.891
		c-4.023,28.24-5.491,56.75-8.988,85.045c-0.85,6.881-1.655,13.767-2.481,20.651C261.253,341.753,261.057,341.792,260.876,341.907z"
		/>
	<path fill="#EF5F5A" d="M198.729,413.484c-0.435-1.926-0.556-4.32-0.217-6.719c1.335-0.927,2.797-0.632,4.17-0.663
		c14.39-0.32,28.781-0.612,43.172-0.881c5.35-0.1,8.406,1.37,7.881,4.055c-0.8,4.089-4.523,4.131-7.645,4.154
		C230.456,413.548,214.821,413.484,198.729,413.484z"/>
	<path fill="#EBE3DA" d="M215.54,457.78c-4.634-1.167-10.12-1.122-9.999-7.156c0.06-2.993,2.738-4.392,5.78-5.086
		c-0.046,3.436,1.407,5.819,4.809,6.477c3.716,0.718,6.007-1.274,7.379-4.625c2.512,1.665,2.286,3.889,1.582,5.964
		c-1.134,3.341-3.994,4.278-7.265,4.246c1.473,6.668-1.402,12.602-2.078,18.786c-0.288,2.638-1.174,5.213-1.831,7.806
		c-0.664,2.619-2.657,2.983-4.825,2.471c-2.17-0.513-3.061-1.857-2.521-4.306c1.522-6.89,3.095-13.789,4.087-20.765
		C211.086,458.588,213.65,459.911,215.54,457.78z"/>
	<path fill="#EBE3DA" d="M147.208,467.475c0.891-0.952,2.635-0.38,2.661-2.56c-3.653-0.554-8.756,2.075-10.514-3.561
		c-0.783-2.508-0.074-4.795,2.212-6.771c2.082,2.654,4.448,4.999,8.143,4.457c4.092-0.6,4.987-3.903,5.486-7.31
		c2.502,0.265,3.791,1.656,4.053,3.706c0.663,5.187-3.959,6.083-7.165,7.952c0.995,2.035,2.447,0.557,3.815,1.08
		c2.701,6.381,4.643,13.29,7.622,19.801c1.069,2.336-1.399,4.683-4.206,4.347c-2.413-0.288-3.765-1.963-4.948-3.869
		C151.069,479.437,148.912,473.663,147.208,467.475z"/>
	<path fill="#EF5F5A" d="M184.903,346.436c-2.214-3.846-5.657-5.529-9.292-6.903c-4.998-1.889-7.726-5.712-9.206-10.625
		c-0.435-1.445-0.469-2.897,1.034-3.723c1.494-0.82,2.804-0.125,3.686,1.115c1.924,2.703,3.419,5.924,7.678,5.232
		c0.255-0.041,0.639,0.715,0.964,1.1c3.491,4.139,7.156,4.321,11.091,0.496c1.932-1.878,3.75-3.874,5.695-5.738
		c1.583-1.518,3.605-2.473,5.584-1.239c2.259,1.408,1.818,3.749,0.983,5.889c-1.74,4.457-4.599,7.651-9.611,8.417
		C189.796,341.024,186.627,342.494,184.903,346.436z"/>
	<path fill="#EBE3DA" d="M197.33,398.193c16.343-1.234,31.948-2.411,47.852-3.612c0,2.819,0,5.43,0,8.436
		c-3.2,0.145-6.488,0.351-9.78,0.432c-11.539,0.283-23.092-0.194-34.618,0.903C195.384,404.865,198.519,400.611,197.33,398.193z"/>
	<path fill="#80A0CD" d="M219.081,495.362c2.064-0.762,3.291-2.536,4.825-4.141c0.28,0.718,0.484,0.971,0.434,1.153
		c-0.521,1.874-1.353,4.014,0.993,5.051c2.286,1.011,3.727-0.961,5.245-2.317c1.319-1.178,1.561-4.238,4.904-2.485
		c-1.499,2.111-2.888,4.209-4.435,6.182c-0.659,0.841-1.437,1.457-2.865,1.318c-10.415-1.011-20.877-1.704-30.914-6.296
		c2.296-2.979,1.461-6.197,0.914-9.438c-0.816-4.843,1.672-7.677,6.764-7.82c0.9,1.201,0.333,2.484-0.007,3.643
		c-0.955,3.261-1.103,6.609,1.746,8.715c2.498,1.846,7.519-0.827,9.704-4.583c2.224,2.745,2.46,2.853,1.16,5.701
		C216.411,492.536,216.818,494.116,219.081,495.362z"/>
	<path fill="#EF5F5A" d="M151.537,420.398c-1.446,11.116-0.632,21.538,1.109,31.929c0.393,2.344-0.728,4.101-3.17,4.431
		c-2.315,0.313-4.618-0.308-5.165-2.887c-2.189-10.322-3.049-20.763-2.27-31.315c0.098-1.323,0.854-1.75,2.009-1.806
		C146.327,420.641,148.605,420.536,151.537,420.398z"/>
	<path fill="#80A0CD" d="M131.183,494.2c2.942-1.868,5.064,0.543,7.048,3.482c0.649,0.961,1.565,2.032,2.813,1.471
		c1.298-0.584,1.538-1.92,1.16-3.305c-0.202-0.74-0.331-1.5-0.53-2.242c-0.159-0.594-0.499-1.17-0.009-1.807
		c1.411,0.153,1.434,1.636,2.219,2.391c0.991,0.954,1.752,2.625,3.378,1.909c1.755-0.773,1.533-2.716,1.026-4.074
		c-0.937-2.508-0.55-5.01-0.592-7.526c-0.022-1.323,0.059-2.59,1.585-3.247c1.791,0.827,2.193,2.682,2.975,4.236
		c1.702,3.382,4.357,5.639,8.175,5.263c3.584-0.353,5.429-2.901,5.636-6.552c0.089-1.574,1.435-2.099,2.606-2.412
		c1.537-0.411,2.234,0.745,2.79,2.018c2.037,4.668,1.701,5.546-2.965,7.464c-9.001,3.7-18.018,7.365-26.983,11.15
		c-1.893,0.799-3.254,0.968-4.597-0.932C135.144,498.976,133.12,496.638,131.183,494.2z"/>
	<path fill="#EBE3DA" d="M252.257,403.724c-1.733-0.364-2.986-0.627-4.659-0.979c0-7.584,0-15.254,0-23.431
		c5.18-0.303,5.432-4.536,5.638-8.777c0.295-6.054,0.583-12.104,6.232-16.859C259.106,370.701,254.324,386.872,252.257,403.724z"/>
	<path fill="#EBE3DA" d="M245.157,386.673c0,2.077,0,3.707,0,5.79c-15.706,1.193-31.471,2.391-47.591,3.615
		c-0.165-1.842-0.309-3.448-0.486-5.418C213.109,389.33,228.901,388.021,245.157,386.673z"/>
	<path fill="#EBE3DA" d="M168.896,400.343c0.706,1.88,0.601,3.503,0.449,5.434c-9.668,0.909-19.293,2.174-29.01,2.503
		c-2.562,0.087-5.123,0.216-7.68,0.395c-5.11,0.358-5.109,0.377-5.693-5.134C140.952,402.474,154.93,401.408,168.896,400.343z"/>
	<path fill="#EF5F5A" d="M222.21,416.227c1.61,10.639-0.103,20.666-1.304,30.711c-0.294,2.455-2.022,3.136-4.168,2.932
		c-2.168-0.206-3.27-1.537-2.88-3.698c1.761-9.754,2.518-19.559,1.428-29.473C217.661,415.854,219.795,416.177,222.21,416.227z"/>
	<path fill="#EBE3DA" d="M168.676,392.982c0.745,1.674,0.423,3.206,0.42,5.227c-14.017,1.072-28.034,2.144-42.331,3.238
		c-0.276-1.547-0.516-2.89-0.875-4.898C140.245,395.352,154.465,394.167,168.676,392.982z"/>
	<path fill="#EBE3DA" d="M139.399,508.414c-6.277,1.721-12.331,2.311-18.514,1.891c-1.535-0.104-2.225-0.923-2.709-2.253
		c-1.772-4.869,1.961-11.322,7.1-12.291c0.74-0.14,1.26,0.14,1.785,0.445C132.123,499.144,136.306,502.969,139.399,508.414z"/>
	<path fill="#EF5F5A" d="M143.606,337.597c-3.43,2.932-4.709,6.213-2,10.143c0.523,0.76,0.534,1.443-0.029,2.083
		c-2.576,2.934-5.368,5.484-10.338,5.222c0.614-9.527,1.215-18.849,1.816-28.171C136.583,330.706,139.929,334.18,143.606,337.597z"
		/>
	<path fill="#EBE3DA" d="M230.773,504.523c1.519-4.618,4.205-8.025,7.08-11.258c1.47-1.653,6.145-0.628,8.626,1.773
		c1.477,1.429,3.108,3.059,2.655,5.274c-0.459,2.244-2.778,2.381-4.587,2.909C240.237,504.48,235.823,504.764,230.773,504.523z"/>
	<path fill="#80A0CD" d="M140.535,505.155c10.977-4.506,21.747-8.927,32.522-13.349c1.42,1.706,0.306,2.562-0.935,3.404
		c-8.845,6.004-18.985,8.947-28.964,12.272C141.422,508.06,140.892,507.015,140.535,505.155z"/>
	<path fill="#80A0CD" d="M229.093,502.318c-0.427,1.648-0.73,2.305-1.724,2.281c-9.848-0.239-19.715-0.2-29.318-2.973
		c-3.629-1.048-3.803-2.83-1.348-5.748C206.845,500.624,217.954,501.368,229.093,502.318z"/>
	<path fill="#EF5F5A" d="M122.452,368.138c1.798,0.426,3.137,0.744,4.627,1.097c0.733,2.737-0.191,5.321-0.566,7.909
		c-0.217,1.494-1.039,2.667-2.838,2.412c-1.711-0.243-2.402-1.47-2.271-3.014C121.628,373.89,122.051,371.255,122.452,368.138z"/>
	<path fill="#EBE3DA" d="M211.808,510.411c-0.314-1.441-0.322-2.713-1.267-3.824c2.431-0.617,4.419-0.277,6.308-0.056
		c0.841,1.438,0.478,2.652,0.38,3.883C215.371,510.955,213.75,510.564,211.808,510.411z"/>
	<path fill="#EBE3DA" d="M158.153,504.546c0.658,1.603,1.134,2.761,1.792,4.365c-1.774,0.675-3.443,1.309-5.036,1.915
		c-1.259-1.296-1.53-2.63-1.796-4.283C154.698,505.915,156.291,505.283,158.153,504.546z"/>
	<path fill="#EBE3DA" d="M209.163,510.448c-2.796-1.337-6.868,0-6.11-5.036c2.117-0.07,4.079,0.097,5.96,0.639
		C209.637,507.42,209.145,508.625,209.163,510.448z"/>
	<path fill="#EBE3DA" d="M145.193,513.084c-1.476,1.002-3.197,0.565-4.338,1.732c-0.892-1.081-0.983-2.354-1.248-3.589
		c1.134-1.512,3.058-0.968,4.307-1.962C145.096,510.407,145.201,511.628,145.193,513.084z"/>
	<path fill="#EBE3DA" d="M224.748,510.745c-1.663,0-3.188,0-4.746,0c-0.844-1.196-0.551-2.382-0.161-3.61
		c1.528-0.541,3.029-0.343,4.676-0.176C225.173,508.187,225.44,509.414,224.748,510.745z"/>
	<path fill="#EBE3DA" d="M166.38,505.535c-1.436,0.846-2.706,1.595-3.988,2.351c-1.367-1.012-1.464-2.458-1.985-3.775
		c1.068-1.25,2.573-1.485,4.16-2.027C165.149,503.192,165.702,504.244,166.38,505.535z"/>
	<path fill="#EBE3DA" d="M227.304,510.813c0-1.508,0-2.48,0-3.746c2.201,0.464,5.533-2.146,6.014,2.864
		C231.377,510.216,229.545,510.484,227.304,510.813z"/>
	<path fill="#EBE3DA" d="M152.12,511.313c-1.226,0.908-2.594,1.059-4.02,1.285c-1.118-0.987-1.148-2.346-1.302-3.665
		c0.975-1.027,2.278-1.036,3.478-1.453C151.742,508.398,151.86,509.871,152.12,511.313z"/>
	<path fill="#EBE3DA" d="M228.867,488.415c2.508,2.73,1.651,4.865-2.569,6.928C225.385,492.312,227.657,490.646,228.867,488.415z"/>
	<path fill="#EBE3DA" d="M168.683,504.037c-1.325-0.81-1.63-1.858-1.739-3.009c1.657-1.617,3.15-2.391,4.17,0.747
		C170.715,502.921,169.483,503.284,168.683,504.037z"/>
	<path fill="#EBE3DA" d="M234.623,507.305c1.647-0.961,3.387-0.743,5.052-0.907c0.817,1.706,0.348,2.491-1.284,2.864
		C236.597,509.671,235.213,509.533,234.623,507.305z"/>
	<path fill="#EBE3DA" d="M138.371,514.283c-1.653,0.936-2.995,1.099-4.407,1.009c-0.527-0.895-0.85-1.814-0.743-2.802
		c0.737-1.067,1.85-0.904,2.82-0.976C138.354,511.345,137.316,513.446,138.371,514.283z"/>
	<path fill="#7B787E" d="M260.876,341.907c0.181-0.115,0.377-0.155,0.588-0.118c0.276,3.548-0.645,6.91-0.949,10.368
		c-0.414-0.051-0.828-0.103-1.243-0.154C259.807,348.638,260.342,345.273,260.876,341.907z"/>
	<path fill="#EBE3DA" d="M195.46,503.382c2.04,0.8,5.634-0.361,5.065,4.051C197.978,506.954,196.495,505.451,195.46,503.382z"/>
	<path fill="#EBE3DA" d="M222.757,485.869c0.668,3.393-0.942,5.239-3.39,7.076C219.648,490.063,220.614,487.906,222.757,485.869z"/>
	<path fill="#EBE3DA" d="M173.321,500.425c-0.759-0.702-1.379-1.275-2.244-2.074c1.207-0.769,2.186-1.393,3.177-2.024
		C175.582,498.15,174.626,499.167,173.321,500.425z"/>
	<path fill="#EBE3DA" d="M127.725,512.754c2.322-0.858,3.674-0.473,3.386,2.495C129.077,515.536,127.745,515.125,127.725,512.754z"
		/>
	<path fill="#EBE3DA" d="M139.865,496.405c-1.967-2.145-2.804-3.964-2.992-6.156C138.534,491.614,139.567,493.352,139.865,496.405z"
		/>
	<path fill="#2D1210" d="M178.051,287.741c-3.167,0.312-4.711-1.077-5.944-2.955c-2.366-3.604-7.329-5.858-11.302-5.229
		c-2.747,0.435-3.908,2.095-4.255,4.677c-0.341,2.531,0.138,4.686,2.667,5.766c2.171,0.927,4.449,1.606,6.943,2.488
		c-2.992,1.81-8.684,0.262-10.674-2.547c-2.142-3.024-1.588-8.667,1.638-10.797c2.332-1.54,2.749-3.268,2.744-5.711
		c-0.013-5.529,0.24-11.088,2.024-16.361c1-2.955-1.752-3.201-2.844-4.715c1.305-2.208,3.601,0.685,5.019-1.198
		c1.635-2.171-1.831-3.293-0.494-5.841c2.937,2.766,6.932,1.824,10.253,3.132c4.165,1.641,5.553,5.582,5.52,9.785
		c-0.037,4.612-0.47,9.222-0.777,13.83c-0.191,2.869-1.256,6.052,2.959,7.095c0.242,0.06,0.415,0.608,0.513,0.959
		c0.059,0.209-0.091,0.477-0.187,0.892c-2.544,0.005-5.627-2.785-7.615,0.425C172.152,284.81,176.957,284.986,178.051,287.741z
		 M174.747,259.696c-0.227-0.349-0.454-0.698-0.681-1.047c-3.011,0-6.024,0.049-9.034-0.019c-1.765-0.039-2.022,1.052-2.271,2.425
		c-0.895,4.942-0.748,9.953-1.081,14.932c-0.047,0.709,0.275,1.219,1.392,1.309c1.187-2.732,1.258-6.059,3.316-8.54
		c1.988-0.114,3.674,1.748,6.634,0.755C169.878,265.724,168.395,261.959,174.747,259.696z M164.02,256.852
		c3.59-0.036,6.934-0.555,10.121,0.441c0.999,0.312,1.892,0.994,2.687-0.099c0.714-0.981,0.166-2.11-0.334-2.88
		c-1.657-2.549-3.879-4.72-7.147-4.164C166.029,250.714,164.799,253.458,164.02,256.852z"/>
	<path fill="#2D1210" d="M192.136,279.389c-1.436-7.377-2.092-14.806,0.143-22.094c0.781-2.546-1.619-2.85-2.14-4.57
		c1.48-1.088,4.585,1.625,4.959-2.185c-0.15-1.247-2.162-1.959-1.621-4.434c2.588,2.697,5.399,2.045,8.373,1.746
		c3.68-0.37,7.054,3.429,8.154,7.458c1.73,6.34,1.184,12.614,0.042,18.881c-0.713,3.911-1.748,7.736,0.614,11.881
		c-4.985-6.197-11.294-7.221-18.218-6.43C192.336,279.561,192.234,279.477,192.136,279.389z M198.358,268.917
		c1.594-0.153,2.926,1.628,4.704,0.764c0.337-2.411-2.197-3.43-2.45-5.403c0.55-2.121,3.004-2.607,4.177-4.86
		c-3.119,0-5.769,0.062-8.414-0.018c-2.499-0.075-3.407,1.139-3.376,3.514c0.063,4.854,0.019,9.71,0.019,15.059
		C197.885,276.367,195.889,271.573,198.358,268.917z M194.266,257.947c4.955-0.963,9.474-0.6,14.023,0.36
		c-0.613-5.127-3.467-8.629-6.839-8.661C198.229,249.616,195.241,252.906,194.266,257.947z"/>
	<path fill="#2D1210" d="M199.935,288.921c2.734-0.122,4.434,1.441,6.737,3.448c-3.306,0.231-4.075,2.524-5.336,4.457
		c-3.769,5.779-9.067,8.171-14.274,6.646c-0.83-0.243-1.825-0.305-1.779-2.243c3.885,0.394,7.894,1.339,11.3-1.842
		C200.588,295.646,201.664,293.205,199.935,288.921z"/>
	<path fill="#2D1210" d="M192.441,279.641c0.115,0.855-0.409,1.425-0.878,2.035c-2.836,3.686-0.545,6.332,2.177,8.9
		c-2.703,0.44-4.232-0.553-5.146-3.063c-1.152-3.16,0.276-6.435,3.542-8.125C192.234,279.477,192.336,279.561,192.441,279.641z"/>
	<path fill="#EBE3DA" d="M174.747,259.696c-6.352,2.263-4.87,6.027-1.725,9.816c-2.96,0.992-4.646-0.87-6.634-0.753
		c-2.058,2.479-2.13,5.806-3.316,8.538c-1.116-0.09-1.439-0.6-1.392-1.309c0.333-4.979,0.186-9.99,1.081-14.932
		c0.249-1.374,0.507-2.465,2.271-2.425c3.01,0.067,6.022,0.019,9.034,0.019C174.293,258.998,174.52,259.347,174.747,259.696z"/>
	<path fill="#F593B3" d="M164.02,256.852c0.779-3.394,2.009-6.138,5.327-6.702c3.268-0.556,5.49,1.615,7.147,4.164
		c0.5,0.769,1.048,1.898,0.334,2.88c-0.795,1.093-1.688,0.412-2.687,0.099C170.954,256.296,167.61,256.816,164.02,256.852z"/>
	<path fill="#EBE3DA" d="M198.358,268.917c-2.469,2.656-0.472,7.45-5.341,9.056c0-5.35,0.044-10.205-0.019-15.059
		c-0.031-2.375,0.877-3.589,3.376-3.514c2.645,0.079,5.295,0.018,8.414,0.018c-1.172,2.253-3.627,2.739-4.177,4.86
		c0.253,1.973,2.787,2.992,2.45,5.403C201.284,270.545,199.952,268.763,198.358,268.917z"/>
	<path fill="#F593B3" d="M194.266,257.947c0.976-5.041,3.963-8.331,7.184-8.301c3.372,0.032,6.226,3.534,6.839,8.661
		C203.739,257.346,199.22,256.984,194.266,257.947z"/>
</g>
</svg>
