<?xml version="1.0" encoding="utf-8"?>
<!-- Generator: Adobe Illustrator 17.0.0, SVG Export Plug-In . SVG Version: 6.00 Build 0)  -->
<!DOCTYPE svg PUBLIC "-//W3C//DTD SVG 1.1//EN" "http://www.w3.org/Graphics/SVG/1.1/DTD/svg11.dtd">
<svg version="1.1" id="Layer_1" xmlns="http://www.w3.org/2000/svg" xmlns:xlink="http://www.w3.org/1999/xlink" x="0px" y="0px"
	 width="612px" height="792px" viewBox="0 0 612 792" enable-background="new 0 0 612 792" xml:space="preserve">
<path fill="#241C18" d="M222.468,405.419c0.015-0.611,0.03-1.223,0.045-1.835c-0.011-0.707-0.022-1.414-0.033-2.12
	c-0.006-3.708-0.012-7.417-0.018-11.122c0.324-1.885,0.353-3.761-0.214-5.615c-0.128-0.878-0.255-1.757-0.383-2.635
	c-0.093-0.861-0.185-1.723-0.277-2.584c-0.012-0.331-0.025-0.661-0.037-0.992c-0.082-1.361-0.164-2.722-0.247-4.083
	c-1.233-9.447-1.818-19.016-5.266-28.046c0.234-5.006-1.867-9.374-3.785-13.791c0.664-1.969,0.212-3.893-0.149-5.848
	c-0.813-4.407-0.744-8.773,0.017-13.241c0.617-3.623,2.536-5.345,5.757-6.556c3.182-1.196,6.821-1.441,9.388-4.073
	c-0.002-0.001,0.014,0.01,0.014,0.01c3.574,0.232,6.576-1.338,9.539-3.031c0.314,0.028,0.559-0.089,0.733-0.352
	c10.065-2.441,19.752-5.967,29.21-10.155c3.413-0.82,6.887-1.49,9.658-3.9c0.367,0.003,0.733,0.007,1.1,0.01
	c7.247-2.303,14.51-4.558,21.735-6.929c3.327-1.091,6.697-1.875,10.175-2.22c0.446,0.02,0.893,0.04,1.339,0.06
	c2.79,0.593,5.525,1.321,7.824,3.138c0.307,0.45,0.676,0.566,1.135,0.215c0.277,0.038,0.542-0.004,0.794-0.127
	c0.001-0.001,0.296,0.242,0.296,0.242l0.381-0.029c9.337,4.862,17.844,11.02,26.494,16.956c1.139,3.821,2.277,7.643,3.416,11.464
	c-1.133,9.301,1.474,18.328,2.12,27.5c0.231,3.281-0.654,6.881,1.61,9.871c1.268,1.401-1.388,2.567-0.242,3.965
	c0.199,3.387-0.581,6.851,0.592,11.03c4.173-6.959,9.685-11.679,14.423-17.077l-0.034,0.032c1.236-0.185,3.633-3.377,4.883-4.062
	c3.354-1.601,6.58-3.623,10.096-4.69c3.747-1.137,4.454-3.154,3.378-6.459c0.515-1.017,0.856-2.181,1.573-3.027
	c4.167-4.914,3.745-6.209-2.696-7.816c-2.264-3.364-4.717-6.744-0.857-10.569c3.147-3.118,7.423-2.363,13.23,2.236
	c3.407,7.348,3.409,7.354,11.363,4.691c6.307-2.111,12.627-2.844,18.995-0.255c4.375,2.858,7.1,7.212,9.976,11.357
	c1.797,2.591,1.478,6.079,0.507,8.613c-1.044,2.725-4.529,2.482-7.139,1.945c-6.056-1.247-11.197,0.669-16.742,3.015
	c-5.962,2.523-11.807,7.212-19.175,4.441c-0.589-0.221-1.578,0.319-2.266,0.708c-12.023,6.799-22.298,15.583-30.374,26.853
	c-0.424,0.592,0.118,1.821,0.118,1.821c-1.463-0.946-1.501,0.636-2.117,1.193c-1.106,0.711-2.807,4.882-3.759,5.878
	c-0.833,0.886-1.411,1.839-0.832,3.103c-2.555,2.071-3.523,4.505-3.629,8.017c-0.142,4.706-1.063,9.405-0.616,14.165
	c-0.273,0.184-0.354,0.432-0.241,0.742c-0.594,0.69-0.433,1.46-0.236,2.234c-0.189,5.657-0.378,11.314-0.567,16.97
	c-0.148,0.251-0.134,0.493,0.044,0.725l-0.151,0.116c-0.694,0.127-0.783,0.591-0.652,1.176c0.037,0.643,0.073,1.287,0.11,1.93
	c-0.47,6.446-3.819,10.983-9.334,14.081c-1.202,0.67-2.793,0.906-3.014,2.683c-12.393,2.577-12.444,2.592-8.889,14.48
	c1.043,3.489,1.48,7.288,4.272,10.05c-1.709,3.693,0.381,6.998,1.07,10.448c-0.407,2.31,0.64,4.226,1.665,6.147
	c-0.32,5.77,1.449,11.248,2.253,18.169c1.215-5.164,3.439-8.671,3.533-12.813c2.377-0.949,5.576-1.249,4.119-5.222
	c1.578,1.544,2.908,0.592,4.361-0.317c3.876-2.424,8.087-3.607,12.705-3.91c13.882-0.912,26.148,13.112,21.73,27.794
	c-2.592,8.614-7.498,15.475-15.022,20.433c-1.02,0.578-2.404,0.768-2.524,2.324c-1.571,3.959-5.212,5.323-8.699,6.819
	c-1.192,0.511-2.625,0.574-2.44,2.402c-6.632,2.585-13.634,3.775-20.509,5.445c-3.709,0.9-6.736-0.25-8.118-3.827
	c-1.156-2.991-3.313-4.827-5.661-6.635c-0.367-0.886-1.175-0.964-1.973-1.059c-0.059-0.462-0.117-0.924-0.175-1.386
	c-0.18-0.402-0.361-0.805-0.541-1.207c-1.932-3.253-0.71-6.666-0.51-10.027c3.223-2.855-1.235-6.045,0.39-8.97
	c1.107-2.749,3.414-4.396,5.761-6.078c-2.354-18.514-6.885-36.405-13.002-54.2c-4.227,1.851-8.682,1.349-12.037,4.205
	c-0.872,0.064-1.744,0.128-2.616,0.192c-4.043-0.047-7.77,1.306-11.839,2.553c4.858,16.851,3.837,32.936-7.574,48.624
	c5.017-1.33,7.969,0.499,11.308,0.602c7.872,0.242,14.925,8.265,14.208,15.157c-1.138,10.94-8.7,19.804-19.294,22.997
	c-4.592,1.384-9.232,1.009-13.875,1.135c-0.667-0.063-1.336-0.125-2.004-0.187c-4.463-0.775-8.238-3.852-12.93-3.863
	c-2.307-3.836-6.483-7.189-9.832-7.591c-7.483-0.897-7.909-7.121-11.01-11.274c-1.213-1.624-0.619-4.062,0.805-5.572
	c2.701-2.866,3.176-6.387,3.61-9.99c0.502-2.956,3.08-4.636,4.375-7.106c0.67-0.287,1.423-0.515,1.091-1.521l0.032,0.146
	c5.411,0.658,9.959-2.84,15.169-3.15c0.626,1.374-0.352,1.527-1.308,1.957c-4.985,2.247-3.731,6.453-2.819,10.237
	c0.868,3.601,2.248,4.015,7.377,3.195c-4.43-6-4.544-7.75-0.852-13.078c-0.706-0.905-2.973-0.093-2.508-2.286
	c0.942-0.106,2.115-0.625,2.787-0.249c4.093,2.287,6.122-0.323,7.846-3.251c4.261-7.238,5.762-15.069,4.424-23.378
	c-1.549-9.62-1.739-9.723-11.263-8.252c-1.306,0.202-2.625,0.32-3.938,0.477c-0.678,0.332-1.355,0.665-2.033,0.997
	c-1.107,0.074-2.214,0.148-3.321,0.222c0,0,0.009-0.017,0.009-0.017c-7.203-0.902-13.047-4.889-19.085-8.413
	c-1.689-1.275-3.168-2.924-5.451-3.208c-2.911-4.526-8.594-6.714-10.32-12.234c0.138-0.237,0.095-0.439-0.129-0.602
	c-0.574-2.016,0.38-4.323-1.172-6.152c1.422-1.395,1.574-3.165,1.479-5.008c-0.121-0.434-0.243-0.869-0.364-1.303
	c2.349-7.062,2.021-14.402,2.253-21.684C222.457,406.844,222.463,406.131,222.468,405.419z M367.824,488.78
	c-2.232,4.313-5.973,8.061-5.266,13.559c2.288-6.312,6-11.306,12.147-14.362c-2.765-1.835-4.587,1.237-6.93,0.859
	c-1.846-1.244,1.772-1.713-0.063-3.315c-21.163,4.046-25.114,17.992-20.152,36.806c-2.389-0.091-1.732-3.442-4.205-2.668
	c-1.425,1.71,0.815,4.765-2.11,6.022c-4.378-5.598-10.036,0.22-14.616-2.479c-2.613,5.204-1.554,9.033,2.09,12.273
	c9.547,8.487,27.473,2.688,30.92-9.977c1.514-4.977,1.41-9.95-0.036-14.92c-0.729-6.602-0.023-12.957,3.75-18.602
	C364.355,490.474,364.934,487.849,367.824,488.78z M353.346,370.068c0.569-21.4-2.462-42.554-4.366-63.778
	c-0.727-8.097-3.467-9.538-11.448-7.017c-11.907,3.76-23.781,7.627-35.705,11.333c-16.212,5.039-32.462,9.954-48.686,14.953
	c-7.594,2.34-8.564,4.325-6.127,11.993c0.604,1.901,1.179,3.827,1.565,5.781c4.028,20.411,8.68,40.742,8.847,61.695
	c0.026,3.286,1.642,4.805,4.079,6.692c4.204,3.254,8.012,1.37,12.372,0.992c8.24-0.714,16.632-0.519,24.919,0.655
	c4.193,0.594,7.356,2.236,7.773,6.923c0.1,1.127,0.541,1.62,1.447,2.28c6.055,4.414,6.309,6.704,1.687,12.405
	c-0.503,0.621-1.085,1.337-1.21,2.079c-0.733,4.381-3.764,6.444-7.57,7.792c-1.246,0.441-2.263,0.936-2.938,2.344
	c-1.541,3.214-4.56,4.213-7.892,4.311c-8.43,0.25-14.704-3.437-19.082-10.561c-0.672-1.093-0.736-2.89-2.237-3.103
	c-5.481-0.778-6.439-4.533-6.264-9.096c0.08-2.081-0.663-3.791-2.795-3.873c-2.391-0.092-1.984,2.088-2.252,3.686
	c-1.468,8.76-0.14,17.646-1.286,26.429c-0.667,5.115,0.25,6.118,5.408,5.384c10.562-1.503,21.237-2.029,31.651-4.867
	c17.792-4.848,36.053-8.067,52.353-17.504c4.045-2.342,6.004-5.379,5.857-9.57C350.763,408.916,353.902,389.55,353.346,370.068z
	 M251.994,404.29c1.248-2.402,0.884-3.896,0.772-5.36c-1.742-22.725-4.877-45.22-10.995-67.233
	c-0.348-1.251-1.034-2.015-1.938-2.751c-5.321-4.328-11.189-7.761-17.383-10.668c-3.47-1.629-4.739-0.12-4.364,3.221
	c0.332,2.965,0.754,5.96,1.551,8.826c4.444,15.978,7.872,32.14,9.178,49.221c0.853-2.325,1.707-4.102,2.15-5.976
	c1.005-4.246,3.325-6.385,7.814-5.272c4.677,1.16,4.377,4.324,3.58,8.171C240.108,387.338,244.204,396.107,251.994,404.29z
	 M256.238,505.656c-8.326,0.168-12.065,5.743-9.16,13.286c3.505,9.103,10.343,15.07,19.384,18.211
	c11.248,3.906,22.354,3.31,32.579-3.229c6.287-4.021,8.017-13.522-0.164-18.349c-7.511-4.431-25.217-3.806-30.97,3.169
	c-1.551,1.881-2.802,4.598-5.639,5.63c-0.587-2.359,1.485-3.568,1.49-5.482c-2.855-0.795-5.119,1.817-7.951,1.747
	c0.226-2.156,2.471-2.493,3.014-4.617C256.618,513.284,256.257,509.653,256.238,505.656z M227.884,310.718
	c5.517,3.12,10.273,5.699,14.904,8.485c1.772,1.066,3.153,0.277,4.696-0.24c27.238-9.134,54.479-18.26,81.713-27.404
	c1.288-0.432,2.527-1.01,3.847-1.544c-1.792-2.844-3.8-2.23-5.936-1.468c-6.101,2.176-12.225,4.291-18.35,6.399
	c-1.614,0.555-3.259,1.47-5.369-0.115c7.695-3.043,15.077-5.963,23.361-9.238c-5.567-2.855-9.712,1.467-14.332,0.577
	c1.35-2.764,4.897-1.952,7.056-5.614C288.028,289.913,258.623,301.128,227.884,310.718z M229.427,393.847
	c0,6.136,0.196,12.281-0.048,18.407c-0.325,8.148-0.558,16.413-2.745,24.253c-0.93,3.332-0.655,5.418,1.536,7.457
	c6.237,5.802,13.141,10.672,20.634,14.438c1.588-0.638,2.441-1.669,2.565-3.075c0.887-10.093,3.123-20.083,2.156-30.325
	c-0.199-2.109-1.135-3.252-2.786-4.317C240.719,414.22,233.751,405.392,229.427,393.847z M269.808,427.843
	c1.547,4.501,1.441,8.806,4.022,12.241c2.585,3.44,5.716,6.093,9.853,7.264c3.977,1.126,8.079,2.171,11.684-1.326
	c-2.117-1.471-5.504,0.223-7.078-3.705c6.206-0.697,13.37,2.43,17.551-4.799c-3.585-0.762-6.883,1.116-10.127-0.667
	c1.041-2.269,2.828-2.005,4.396-2.226c1.802-0.254,3.639-0.385,5.39-0.841c2.185-0.568,4.152-1.692,4.157-4.303
	c0.005-2.832-2.121-4.108-4.46-4.631c-2.053-0.459-4.241-0.317-6.173-0.429c-1.133,1.424,1.008,3.288-1.839,4.331
	c-1.663-3.196-4.176-5.916-7.956-7.428c4.765-1.214,9.547,2.944,14.251-0.698c-1.836-4.979-6.217-4.02-9.996-4.004
	c-4.101,0.017-7.978-2.603-12.24-0.746c-3.691,1.608-5.192,5.648-8.894,8.015c-0.133-3.66,2.713-5.596,3.506-8.754
	c-7.047,0.01-8.354,5.135-9.86,9.656c-1.21,3.632-2.516,7.683,2.272,10.695C268.987,432.972,267.494,430.532,269.808,427.843z
	 M417.033,320.141c4.354-2.933,9.349-2.609,15.395-2.85c-3.095-2.125-5.333-2.478-7.609-2.499
	c-4.753-0.044-9.124,1.719-13.526,3.177c-4.265,1.413-7.434,0.718-9.454-3.648c-1.126-2.433-2.774-4.549-5.298-5.776
	c-2.361-1.148-4.53-1.176-6.089,1.285c-1.772,2.796,0.46,3.874,2.329,4.948c2.814,1.617,5.414,3.386,5.883,6.928
	c0.467,3.532,0.819,7.081,4.157,10.658c-5.101-0.585-5.064-4.475-6.734-6.596c-3.287,2.116-2.726,4.628-1.462,7.189
	c1.976,4.004,4.447,7.484,9.412,7.959c2.16,0.207,3.739-0.482,3.707-3.102c4.039,1.674,7.192,0.328,10.175-1.715
	c5.319-3.644,10.993-5.316,17.466-3.71c1.737,0.431,3.841,1.1,5.547-1.136c-6.518-5.133-14.058-4.006-22.432-3.953
	c3.808-3.255,7.294-2.721,10.627-2.948c3.558-0.243,6.831,1.539,10.419,1.161C433.232,318.769,425.061,320.075,417.033,320.141z
	 M363.929,532.274c3.528,0.943,3.789-2.786,6.163-3.615c7.572-2.643,11.812-8.774,14.781-15.807
	c2.046-4.846,2.73-9.938,0.923-15.081c-2.422-6.891-8.176-8.284-13.599-3.338c-3.086,2.814-5.186,6.407-5.365,10.419
	c-0.396,8.874,0.453,17.848-3.208,26.317C363.527,531.393,363.779,531.766,363.929,532.274z M338.175,294.603
	c-1.962-2.843-3.895-1.557-5.727-0.958c-28.785,9.41-57.565,18.831-86.341,28.27c-1.102,0.362-2.234,1.19-3.333,0.58
	c-6.294-3.499-12.531-7.1-19.263-10.937c1.319-0.895,1.872-1.232,2.38-1.626c0.394-0.306,1.302-0.395,0.723-1.261
	c-5.101,0.331-5.661,0.59-8.224,4.085c8.782,3.698,17.406,7.538,23.859,13.02C274.518,315.289,306.113,305.022,338.175,294.603z
	 M243.398,520.649c-2.396,2.334-2.368,4.443-0.753,7.393c1.974,3.604,5.524,4.609,8.365,6.82
	c9.35,7.275,19.235,12.514,31.439,11.455c4.765-0.414,9.396-1.656,13.633-5.987C273.722,546.986,254.364,541.43,243.398,520.649z
	 M328.477,513.009c-1.692,2.443-2.446,4.392-0.393,6.213c3.617,3.206,13.504-0.305,15.125-5.694
	C338.26,515.204,333.381,518.742,328.477,513.009z M334.72,542.429c7.018,3.902,13.443-0.888,20.167-1.777
	c2.545-0.337,2.497-0.696,3.123-4.574C350.59,540.452,343.13,543.115,334.72,542.429z"/>
<path fill="#9E6B3C" d="M109.55,272.467c-1.165-0.259-1.454-1.291-1.912-2.165C109.902,269.589,109.712,271.04,109.55,272.467z"/>
<path fill="#9E6B3C" d="M225.248,384.727c0.567,1.854,0.537,3.73,0.214,5.615C224.746,388.493,224.688,386.622,225.248,384.727z"/>
<path fill="#9E6B3C" d="M223.256,441.703c0.224,0.163,0.267,0.365,0.129,0.602c-0.001-0.004-0.301-0.263-0.301-0.263
	L223.256,441.703z"/>
<path fill="#9E6B3C" d="M403.958,367.851c0,0-0.032,0.01-0.033,0.011C403.924,367.863,403.958,367.851,403.958,367.851z"/>
<path fill="#7DA1CE" d="M353.348,370.061c0.555,19.489-2.584,38.855-1.902,58.365c0.147,4.191-1.813,7.229-5.857,9.57
	c-16.301,9.437-34.561,12.656-52.353,17.504c-10.414,2.838-21.088,3.363-31.651,4.867c-5.158,0.734-6.075-0.269-5.408-5.384
	c1.146-8.783-0.182-17.67,1.286-26.429c0.268-1.598-0.139-3.778,2.252-3.686c2.132,0.082,2.875,1.792,2.795,3.873
	c-0.175,4.562,0.783,8.318,6.264,9.096c1.5,0.213,1.565,2.01,2.237,3.103c4.378,7.124,10.652,10.811,19.082,10.561
	c3.331-0.099,6.351-1.097,7.892-4.311c0.675-1.409,1.692-1.903,2.938-2.344c3.806-1.348,6.837-3.411,7.57-7.792
	c0.124-0.742,0.707-1.458,1.21-2.079c4.621-5.701,4.368-7.991-1.687-12.405c-0.906-0.66-1.346-1.153-1.447-2.28
	c-0.417-4.687-3.581-6.329-7.773-6.923c-8.287-1.174-16.679-1.368-24.919-0.655c-4.361,0.378-8.169,2.262-12.372-0.992
	c-2.437-1.886-4.053-3.406-4.079-6.692c-0.167-20.954-4.819-41.284-8.847-61.695c-0.386-1.954-0.96-3.88-1.565-5.781
	c-2.437-7.668-1.467-9.653,6.127-11.993c16.224-5,32.475-9.914,48.686-14.953c11.924-3.706,23.798-7.573,35.705-11.333
	c7.981-2.52,10.721-1.08,11.448,7.017C350.884,327.514,353.916,348.667,353.348,370.061z M287.874,405.416
	c2.886,2.26,2.886,2.26,12.106-4.629c6.605,8.727,13.89,11.309,20.19,7.102c6.292-4.201,8.405-16.168,4.527-21.174
	c-2.69,1.017-5.403,2.267-8.242,3.075c-8.263,2.35-11.355,1.079-15.575-6.001c-0.581-0.975-1.293-1.871-2.096-3.021
	c4.02-1.458,6.787-4.248,8.841-7.765c1.879,1.491,3.531,2.8,5.187,4.114c-0.775,0.942-2.742,0.431-2.839,2.217
	c0.886,1.892,4.089,0.857,4.362,3.534c-1.3,1.868-4.635-0.688-5.384,2.811c2.297,2.631,5.08,2.737,7.711,0.622
	c3.303-2.656,1.881-5.554-0.564-8.181c2.031-0.496,3.756-0.883,5.462-1.343c1.928-0.52,3.817-1.2,5.76-1.647
	c5.622-1.293,9.776,0.423,11.85,4.797c2.151,4.536,0.888,10.442-3.115,13.595c-1.551,1.222-3.424,2.038-5.159,3.022
	c-1.107,0.628-2.881,0.963-2.131,2.735c0.84,1.984,2.467,1.111,3.834,0.504c4.804-2.133,8.226-5.677,10.024-10.581
	c3.252-8.867-2.157-17.108-11.527-17.844c-0.883-0.069-1.974,0.519-2.764-0.738c0.331-1.178,0.75-2.437,1.037-3.725
	c2.066-9.284,1.583-18.258-3.689-26.487c-6.158-9.612-16.457-10.643-22.003-2.315c-0.606,0.91-0.532,2.281-1.968,2.799
	c-0.719-0.603-1.455-1.271-2.241-1.873c-7.793-5.964-16.117-3.588-19.507,5.63c-1.774,4.822-1.568,9.808-0.946,14.817
	c0.874,7.045,3.566,13.273,8.977,18.344c-3.346,1.407-6.159,1.909-8.413,4.18c2.903,1.194,5.192,0.073,7.557-0.356
	c7.868-1.428,13.27,3.576,12.324,11.275c-0.57,4.635-3.555,7.326-7.331,9.46C290.611,403.227,288.532,403.351,287.874,405.416z
	 M284.691,332.272c-6.45-2.803-11.839,1.229-11.606,8.25C276.212,336.745,279.9,334.471,284.691,332.272z M317.701,330.261
	c-2.625-5.1-8.482-5.371-11.711-0.775C309.915,329.745,313.663,329.993,317.701,330.261z"/>
<path fill="#7CA1CD" d="M251.994,404.29c-7.79-8.183-11.886-16.952-9.634-27.82c0.797-3.847,1.096-7.012-3.58-8.171
	c-4.489-1.113-6.809,1.026-7.814,5.272c-0.444,1.874-1.298,3.651-2.15,5.976c-1.306-17.082-4.734-33.244-9.178-49.221
	c-0.797-2.866-1.219-5.861-1.551-8.826c-0.374-3.341,0.895-4.85,4.364-3.221c6.194,2.907,12.062,6.34,17.383,10.668
	c0.904,0.736,1.591,1.5,1.938,2.751c6.118,22.013,9.253,44.509,10.995,67.233C252.878,400.394,253.242,401.888,251.994,404.29z"/>
<path fill="#E9D535" d="M256.238,505.656c0.019,3.997,0.38,7.628,2.582,10.365c-0.542,2.124-2.787,2.461-3.014,4.617
	c2.832,0.07,5.095-2.542,7.951-1.747c-0.005,1.914-2.077,3.122-1.49,5.482c2.837-1.031,4.088-3.749,5.639-5.63
	c5.753-6.975,23.459-7.6,30.97-3.169c8.182,4.827,6.451,14.328,0.164,18.349c-10.225,6.539-21.331,7.136-32.579,3.229
	c-9.042-3.14-15.879-9.108-19.384-18.211C244.174,511.399,247.913,505.824,256.238,505.656z"/>
<path fill="#F9F9F8" d="M227.884,310.718c30.74-9.59,60.145-20.804,91.59-30.164c-2.159,3.662-5.705,2.85-7.056,5.614
	c4.62,0.891,8.765-3.432,14.332-0.577c-8.283,3.276-15.666,6.195-23.361,9.238c2.109,1.585,3.755,0.671,5.369,0.115
	c6.125-2.108,12.249-4.222,18.35-6.399c2.136-0.762,4.144-1.376,5.936,1.468c-1.319,0.533-2.559,1.111-3.847,1.544
	c-27.235,9.144-54.475,18.27-81.713,27.404c-1.543,0.518-2.924,1.306-4.696,0.24C238.157,316.416,233.4,313.838,227.884,310.718z
	 M242.792,316.697c16.938-4.688,33.43-10.625,49.57-17.546C275.457,303.928,258.875,309.614,242.792,316.697z M249.752,309.375
	c9.636-1.741,18.51-5.661,27.317-9.77C267.378,301.19,258.518,305.149,249.752,309.375z M290.037,292.843
	c0.141,0.424,0.281,0.849,0.422,1.273c6.274-1.113,12.287-3.038,17.654-7.015C302.087,289.015,296.062,290.929,290.037,292.843z"/>
<path fill="#7DA1CE" d="M229.427,393.847c4.324,11.545,11.292,20.373,21.311,26.837c1.651,1.065,2.587,2.208,2.786,4.317
	c0.967,10.242-1.269,20.232-2.156,30.325c-0.124,1.406-0.977,2.437-2.565,3.075c-7.493-3.766-14.398-8.635-20.634-14.438
	c-2.191-2.039-2.466-4.125-1.536-7.457c2.187-7.84,2.42-16.105,2.745-24.253C229.623,406.128,229.427,399.983,229.427,393.847z"/>
<path fill="#E9D535" d="M359.639,525.497c-3.446,12.664-21.373,18.464-30.92,9.977c-3.645-3.24-4.703-7.07-2.09-12.273
	c4.581,2.7,10.238-3.118,14.616,2.479c2.925-1.256,0.685-4.311,2.11-6.022c2.473-0.774,1.816,2.577,4.205,2.668
	c-4.962-18.814-1.011-32.76,20.152-36.806c1.835,1.602-1.783,2.071,0.063,3.315l0.052-0.05c-2.893-0.936-3.472,1.689-4.475,3.19
	c-3.772,5.645-4.479,12.001-3.75,18.602C359.615,515.55,359.627,520.524,359.639,525.497z"/>
<path fill="#F9F9F8" d="M269.808,427.843c-2.315,2.69-0.821,5.13-1.54,7.646c-4.787-3.012-3.482-7.063-2.272-10.695
	c1.507-4.521,2.813-9.646,9.86-9.656c-0.793,3.159-3.639,5.095-3.506,8.754c3.702-2.367,5.203-6.407,8.894-8.015
	c4.262-1.857,8.139,0.764,12.24,0.746c3.779-0.016,8.16-0.976,9.996,4.004c-4.703,3.642-9.486-0.516-14.251,0.698
	c3.78,1.511,6.293,4.232,7.956,7.428c2.847-1.043,0.705-2.907,1.839-4.331c1.932,0.112,4.12-0.03,6.173,0.429
	c2.339,0.523,4.465,1.799,4.46,4.631c-0.005,2.611-1.972,3.735-4.157,4.303c-1.751,0.455-3.588,0.587-5.39,0.841
	c-1.568,0.221-3.355-0.043-4.396,2.226c3.244,1.782,6.542-0.095,10.127,0.667c-4.181,7.229-11.345,4.103-17.551,4.799
	c1.574,3.928,4.96,2.234,7.078,3.705c-3.605,3.497-7.707,2.451-11.684,1.326c-4.137-1.171-7.267-3.824-9.853-7.264
	C271.249,436.649,271.355,432.343,269.808,427.843z"/>
<path fill="#F9F9F8" d="M417.033,320.141c8.028-0.066,16.199-1.372,22.513,5.373c-3.589,0.378-6.862-1.404-10.419-1.161
	c-3.333,0.227-6.819-0.307-10.627,2.948c8.374-0.053,15.914-1.18,22.432,3.953c-1.706,2.236-3.81,1.567-5.547,1.136
	c-6.473-1.606-12.147,0.067-17.466,3.71c-2.983,2.043-6.136,3.389-10.175,1.715c0.032,2.62-1.547,3.309-3.707,3.102
	c-4.965-0.476-7.436-3.955-9.412-7.959c-1.263-2.56-1.825-5.073,1.462-7.189c1.67,2.121,1.632,6.011,6.734,6.596
	c-3.338-3.577-3.69-7.126-4.157-10.658c-0.468-3.542-3.069-5.311-5.883-6.928c-1.869-1.074-4.101-2.152-2.329-4.948
	c1.559-2.46,3.728-2.432,6.089-1.285c2.524,1.227,4.172,3.343,5.298,5.776c2.02,4.366,5.189,5.061,9.454,3.648
	c4.403-1.458,8.774-3.221,13.526-3.177c2.276,0.021,4.514,0.374,7.609,2.499C426.382,317.532,421.387,317.208,417.033,320.141z"/>
<path fill="#7DA1CE" d="M363.929,532.274c-0.15-0.508-0.402-0.882-0.306-1.105c3.661-8.469,2.812-17.443,3.208-26.317
	c0.179-4.012,2.28-7.604,5.365-10.419c5.423-4.946,11.177-3.553,13.599,3.338c1.807,5.143,1.123,10.235-0.923,15.081
	c-2.969,7.033-7.209,13.165-14.781,15.807C367.718,529.488,367.457,533.217,363.929,532.274z"/>
<path fill="#7DA1CE" d="M338.175,294.603c-32.062,10.419-63.657,20.686-95.927,31.172c-6.453-5.482-15.077-9.321-23.859-13.02
	c2.563-3.495,3.123-3.753,8.224-4.085c0.579,0.866-0.329,0.955-0.723,1.261c-0.508,0.394-1.06,0.731-2.38,1.626
	c6.732,3.837,12.97,7.438,19.263,10.937c1.099,0.611,2.231-0.218,3.333-0.58c28.775-9.439,57.556-18.86,86.341-28.27
	C334.28,293.046,336.213,291.76,338.175,294.603z"/>
<path fill="#F9F9F8" d="M243.398,520.649c10.966,20.782,30.324,26.337,52.685,19.68c-4.238,4.331-8.868,5.574-13.633,5.987
	c-12.204,1.059-22.089-4.18-31.439-11.455c-2.842-2.211-6.391-3.216-8.365-6.82C241.03,525.091,241.002,522.983,243.398,520.649z"/>
<path fill="#F9F9F8" d="M328.477,513.009c4.904,5.733,9.783,2.194,14.733,0.518c-1.621,5.389-11.509,8.901-15.125,5.694
	C326.031,517.402,326.785,515.453,328.477,513.009z"/>
<path fill="#F9F9F8" d="M263.838,499.587c0,0-0.109,0.027-0.109,0.026c-0.465,2.192,1.802,1.38,2.508,2.285
	c-3.692,5.328-3.578,7.078,0.852,13.078c-5.129,0.821-6.51,0.406-7.377-3.195c-0.912-3.784-2.166-7.991,2.819-10.237
	C263.486,501.113,264.464,500.96,263.838,499.587z"/>
<path fill="#F9F9F8" d="M334.72,542.429c8.41,0.686,15.87-1.976,23.29-6.351c-0.626,3.878-0.578,4.237-3.123,4.574
	C348.163,541.541,341.737,546.33,334.72,542.429z"/>
<path fill="#F9F9F8" d="M367.775,488.836c2.342,0.378,4.165-2.694,6.93-0.859c-6.147,3.056-9.859,8.05-12.147,14.362
	c-0.707-5.498,3.034-9.246,5.267-13.556C367.827,488.785,367.775,488.836,367.775,488.836z"/>
<path fill="#4F3809" d="M359.639,525.497c-0.012-4.974-0.024-9.947-0.036-14.92C361.049,515.547,361.153,520.52,359.639,525.497z"/>
<path fill="#9E6B3C" d="M324.152,534.71c-0.18-0.402-0.361-0.805-0.541-1.207C323.792,533.906,323.972,534.308,324.152,534.71z"/>
<path fill="#9E6B3C" d="M355.346,425.5c-0.217,0.391-0.434,0.783-0.652,1.175C354.563,426.091,354.651,425.628,355.346,425.5z"/>
<path fill="#F293B4" d="M247.546,504.112c0.058-0.726,0.092-1.47,1.091-1.521C248.969,503.596,248.216,503.824,247.546,504.112z"/>
<path fill="#9E6B3C" d="M321.592,279.51c0.378,0.072,0.756,0.143,1.135,0.215C322.269,280.076,321.899,279.96,321.592,279.51z"/>
<path fill="#9E6B3C" d="M229.502,301.482c0.989,0.065,1.028,0.653,0.775,1.404c0.001,0.001-0.014-0.01-0.013-0.009
	C230.011,302.413,229.757,301.948,229.502,301.482z"/>
<path fill="#241C18" d="M287.874,405.416c0.658-2.065,2.737-2.189,4.254-3.046c3.776-2.134,6.761-4.825,7.331-9.46
	c0.946-7.699-4.456-12.703-12.324-11.275c-2.365,0.429-4.654,1.55-7.557,0.356c2.254-2.271,5.067-2.774,8.413-4.18
	c-5.41-5.071-8.103-11.299-8.977-18.344c-0.621-5.01-0.827-9.995,0.946-14.817c3.391-9.218,11.714-11.594,19.507-5.63
	c0.787,0.602,1.522,1.27,2.241,1.873c1.436-0.518,1.362-1.889,1.968-2.799c5.546-8.328,15.844-7.297,22.003,2.315
	c5.272,8.229,5.755,17.203,3.689,26.487c-0.287,1.288-0.706,2.546-1.037,3.725c0.789,1.257,1.881,0.668,2.764,0.738
	c9.37,0.736,14.779,8.976,11.527,17.844c-1.799,4.904-5.22,8.447-10.024,10.581c-1.367,0.607-2.994,1.48-3.834-0.504
	c-0.751-1.772,1.023-2.107,2.131-2.735c1.736-0.984,3.608-1.8,5.159-3.022c4.003-3.153,5.266-9.058,3.115-13.595
	c-2.074-4.374-6.228-6.09-11.85-4.797c-1.944,0.447-3.832,1.127-5.76,1.647c-1.706,0.46-3.431,0.847-5.462,1.343
	c2.445,2.628,3.867,5.525,0.564,8.181c-2.631,2.116-5.414,2.009-7.711-0.622c0.749-3.5,4.084-0.943,5.384-2.811
	c-0.272-2.677-3.476-1.642-4.362-3.534c0.097-1.786,2.064-1.275,2.839-2.217c-1.656-1.314-3.308-2.624-5.187-4.114
	c-2.054,3.518-4.821,6.307-8.841,7.765c0.803,1.15,1.516,2.047,2.096,3.021c4.219,7.08,7.312,8.351,15.575,6.001
	c2.839-0.807,5.553-2.058,8.242-3.075c3.878,5.006,1.765,16.973-4.527,21.174c-6.301,4.207-13.585,1.625-20.19-7.102
	C290.76,407.676,290.76,407.676,287.874,405.416z M297.262,359.077c-5.675-0.479-6.563-3.929-6.362-8.138
	c0.189-3.964,1.375-7.652,3.413-11.098c-5.487-1.715-10.01,0.363-11.432,5.8c-2.545,9.73-1.33,19.155,4.399,27.596
	c2.943,4.336,8.535,5.349,13.057,2.831C294.636,371.638,293.479,366.178,297.262,359.077z M315.88,336.027
	c-3.692-1.268-6.53,0.167-8.782,2.896c-2.266,2.746-2.833,5.654-1.029,9.135c2.913,5.619,3.247,11.794,2.745,18
	c-0.231,2.855,0.399,5.095,3.067,6.657c2.923,1.712,5.738,2.915,9.196,0.621c-5.304-4.868-6.014-10.32-2.82-16.323
	C309.651,355.212,311.057,345.996,315.88,336.027z M305.354,401.81c4.853,4.809,8.335,5.347,12.924,2.081
	C314.08,402.69,310.344,398.7,305.354,401.81z"/>
<path fill="#241C18" d="M284.691,332.272c-4.791,2.199-8.48,4.473-11.606,8.25C272.852,333.501,278.241,329.469,284.691,332.272z"/>
<path fill="#241C18" d="M317.701,330.261c-4.038-0.267-7.786-0.515-11.711-0.775C309.219,324.89,315.076,325.16,317.701,330.261z"/>
<path fill="#241C18" d="M242.792,316.697c16.083-7.083,32.665-12.769,49.57-17.546C276.222,306.072,259.73,312.009,242.792,316.697z
	"/>
<path fill="#241C18" d="M249.752,309.375c8.766-4.226,17.626-8.184,27.317-9.77C268.261,303.714,259.388,307.634,249.752,309.375z"
	/>
<path fill="#241C18" d="M290.037,292.843c6.025-1.914,12.05-3.828,18.076-5.742c-5.367,3.977-11.379,5.902-17.654,7.015
	C290.318,293.692,290.178,293.267,290.037,292.843z"/>
<path fill="#F9F9F8" d="M297.262,359.077c-3.783,7.101-2.626,12.562,3.074,16.991c-4.521,2.518-10.114,1.505-13.057-2.831
	c-5.729-8.441-6.943-17.866-4.399-27.596c1.422-5.437,5.945-7.515,11.432-5.8c-2.038,3.446-3.224,7.134-3.413,11.098
	C290.698,355.148,291.586,358.598,297.262,359.077z"/>
<path fill="#F9F9F8" d="M315.88,336.027c-4.823,9.969-6.229,19.185,2.377,20.985c-3.193,6.003-2.483,11.455,2.82,16.323
	c-3.459,2.294-6.273,1.091-9.196-0.621c-2.668-1.562-3.298-3.802-3.067-6.657c0.502-6.206,0.168-12.381-2.745-18
	c-1.805-3.481-1.238-6.389,1.029-9.135C309.35,336.193,312.189,334.758,315.88,336.027z"/>
<path fill="#F293B4" d="M305.354,401.81c4.99-3.111,8.726,0.879,12.924,2.081C313.689,407.157,310.208,406.619,305.354,401.81z"/>
<g id="Layer_2">
</g>
<path fill="#241C18" d="M363.905,371.127c0.061-1.888-3.463,3.271-5.3,7.255c-1.043,2.263-0.865,4.148-0.865,4.148"/>
<path fill="#241C18" d="M363.905,371.127c0.061-1.888-4.463,3.271-6.3,7.255c-1.043,2.263,0.135,4.148,0.135,4.148"/>
<path fill="#241C18" d="M362.905,371.127c0.061-1.888-4.463,3.271-6.3,7.255c-1.043,2.263,0.135,4.148,0.135,4.148"/>
<path fill="#241C18" d="M361.905,371.127c0.061-1.888-4.463,3.271-6.3,7.255c-1.043,2.263,0.135,4.148,0.135,4.148"/>
<path fill="#241C18" d="M363.905,372.099c3.567-5.69,5.706-28.578,5.706-28.578"/>
</svg>
